<?xml version="1.0" encoding="UTF-8" standalone="no"?>
<svg
   width="900px"
   height="900px"
   viewBox="0 0 900 900"
   version="1.1"
   xml:space="preserve"
   id="SVGRoot"
   inkscape:version="1.4.2 (f4327f4, 2025-05-13)"
   sodipodi:docname="semana11danilo.svg"
   xmlns:inkscape="http://www.inkscape.org/namespaces/inkscape"
   xmlns:sodipodi="http://sodipodi.sourceforge.net/DTD/sodipodi-0.dtd"
   xmlns="http://www.w3.org/2000/svg"
   xmlns:svg="http://www.w3.org/2000/svg"><defs
   id="defs126" />
<sodipodi:namedview
   pagecolor="#a9a9a9"
   bordercolor="#292929"
   borderopacity="1"
   inkscape:showpageshadow="2"
   inkscape:pageopacity="0.0"
   inkscape:pagecheckerboard="0"
   inkscape:deskcolor="#232323"
   id="namedview1"
   inkscape:zoom="0.69666667"
   inkscape:cx="450"
   inkscape:cy="450"
   inkscape:window-width="1600"
   inkscape:window-height="829"
   inkscape:window-x="-8"
   inkscape:window-y="-8"
   inkscape:window-maximized="1"
   inkscape:current-layer="SVGRoot" />
<style
   type="text/css"
   id="style1">
g.prefab path {
  vector-effect:non-scaling-stroke;
  -inkscape-stroke:hairline;
  fill: none;
  fill-opacity: 1;
  stroke-opacity: 1;
  stroke: #00349c;
}
</style>
<g
   inkscape:label="Hive"
   style="fill: white; stroke-width: 2; stroke: black;"
   class="prefab"
   id="g126">
  <path
   d="m 458.94046,243.85936 h 40 l 20,34.64 -20,34.64 h -40 l -20,-34.64 z"
   id="path1" />
  <path
   d="m 218.94046,243.85936 h 40 l 20,34.64 -20,34.64 h -40 l -20,-34.64 z"
   id="path2" />
  <path
   d="m 338.94046,243.85936 h 40 l 20,34.64 -20,34.64 h -40 l -20,-34.64 z"
   id="path3" />
  <path
   d="m 578.94046,243.85936 h 40 l 20,34.64 -20,34.64 h -40 l -20,-34.64 z"
   id="path4" />
  <path
   d="m 698.94046,243.85936 h 40 l 20,34.64 -20,34.64 h -40 l -20,-34.64 z"
   id="path5" />
  <path
   d="m 518.94046,209.21936 h 40 l 20,34.64 -20,34.64 h -40 l -20,-34.64 z"
   id="path6" />
  <path
   d="m 278.94046,209.21936 h 40 l 20,34.64 -20,34.64 h -40 l -20,-34.64 z"
   id="path7" />
  <path
   d="m 398.94046,209.21936 h 40 l 20,34.64 -20,34.64 h -40 l -20,-34.64 z"
   id="path8" />
  <path
   d="m 638.94046,209.21936 h 40 l 20,34.64 -20,34.64 h -40 l -20,-34.64 z"
   id="path9" />
  <path
   d="m 758.94046,209.21936 h 40 l 20,34.64 -20,34.64 h -40 l -20,-34.64 z"
   id="path10" />
  <path
   d="m 518.94046,278.49936 h 40 l 20,34.64 -20,34.64 h -40 l -20,-34.64 z"
   id="path11" />
  <path
   d="m 278.94046,278.49936 h 40 l 20,34.64 -20,34.64 h -40 l -20,-34.64 z"
   id="path12" />
  <path
   d="m 398.94046,278.49936 h 40 l 20,34.64 -20,34.64 h -40 l -20,-34.64 z"
   id="path13" />
  <path
   d="m 638.94046,278.49936 h 40 l 20,34.64 -20,34.64 h -40 l -20,-34.64 z"
   id="path14" />
  <path
   d="m 758.94046,278.49936 h 40 l 20,34.64 -20,34.64 h -40 l -20,-34.64 z"
   id="path15" />
  <path
   d="m 458.94046,174.57936 h 40 l 20,34.64 -20,34.64 h -40 l -20,-34.64 z"
   id="path16" />
  <path
   d="m 218.94046,174.57936 h 40 l 20,34.64 -20,34.64 h -40 l -20,-34.64 z"
   id="path17" />
  <path
   d="m 338.94046,174.57936 h 40 l 20,34.64 -20,34.64 h -40 l -20,-34.64 z"
   id="path18" />
  <path
   d="m 578.94046,174.57936 h 40 l 20,34.64 -20,34.64 h -40 l -20,-34.64 z"
   id="path19" />
  <path
   d="m 698.94046,174.57936 h 40 l 20,34.64 -20,34.64 h -40 l -20,-34.64 z"
   id="path20" />
  <path
   d="m 458.94046,313.13936 h 40 l 20,34.64 -20,34.64 h -40 l -20,-34.64 z"
   id="path21" />
  <path
   d="m 218.94046,313.13936 h 40 l 20,34.64 -20,34.64 h -40 l -20,-34.64 z"
   id="path22" />
  <path
   d="m 338.94046,313.13936 h 40 l 20,34.64 -20,34.64 h -40 l -20,-34.64 z"
   id="path23" />
  <path
   d="m 578.94046,313.13936 h 40 l 20,34.64 -20,34.64 h -40 l -20,-34.64 z"
   id="path24" />
  <path
   d="m 698.94046,313.13936 h 40 l 20,34.64 -20,34.64 h -40 l -20,-34.64 z"
   id="path25" />
  <path
   d="m 518.94046,139.93936 h 40 l 20,34.64 -20,34.64 h -40 l -20,-34.64 z"
   id="path26" />
  <path
   d="m 278.94046,139.93936 h 40 l 20,34.64 -20,34.64 h -40 l -20,-34.64 z"
   id="path27" />
  <path
   d="m 398.94046,139.93936 h 40 l 20,34.64 -20,34.64 h -40 l -20,-34.64 z"
   id="path28" />
  <path
   d="m 638.94046,139.93936 h 40 l 20,34.64 -20,34.64 h -40 l -20,-34.64 z"
   id="path29" />
  <path
   d="m 758.94046,139.93936 h 40 l 20,34.64 -20,34.64 h -40 l -20,-34.64 z"
   id="path30" />
  <path
   d="m 518.94046,347.77936 h 40 l 20,34.64 -20,34.64 h -40 l -20,-34.64 z"
   id="path31" />
  <path
   d="m 278.94046,347.77936 h 40 l 20,34.64 -20,34.64 h -40 l -20,-34.64 z"
   id="path32" />
  <path
   d="m 398.94046,347.77936 h 40 l 20,34.64 -20,34.64 h -40 l -20,-34.64 z"
   id="path33" />
  <path
   d="m 638.94046,347.77936 h 40 l 20,34.64 -20,34.64 h -40 l -20,-34.64 z"
   id="path34" />
  <path
   d="m 758.94046,347.77936 h 40 l 20,34.64 -20,34.64 h -40 l -20,-34.64 z"
   id="path35" />
  <path
   d="m 458.94046,105.29936 h 40 l 20,34.64 -20,34.64 h -40 l -20,-34.64 z"
   id="path36" />
  <path
   d="m 218.94046,105.29936 h 40 l 20,34.64 -20,34.64 h -40 l -20,-34.64 z"
   id="path37" />
  <path
   d="m 338.94046,105.29936 h 40 l 20,34.64 -20,34.64 h -40 l -20,-34.64 z"
   id="path38" />
  <path
   d="m 578.94046,105.29936 h 40 l 20,34.64 -20,34.64 h -40 l -20,-34.64 z"
   id="path39" />
  <path
   d="m 698.94046,105.29936 h 40 l 20,34.64 -20,34.64 h -40 l -20,-34.64 z"
   id="path40" />
  <path
   d="m 458.94046,382.41936 h 40 l 20,34.64 -20,34.64 h -40 l -20,-34.64 z"
   id="path41" />
  <path
   d="m 218.94046,382.41936 h 40 l 20,34.64 -20,34.64 h -40 l -20,-34.64 z"
   id="path42" />
  <path
   d="m 338.94046,382.41936 h 40 l 20,34.64 -20,34.64 h -40 l -20,-34.64 z"
   id="path43" />
  <path
   d="m 578.94046,382.41936 h 40 l 20,34.64 -20,34.64 h -40 l -20,-34.64 z"
   id="path44" />
  <path
   d="m 698.94046,382.41936 h 40 l 20,34.64 -20,34.64 h -40 l -20,-34.64 z"
   id="path45" />
  <path
   d="m 518.94046,70.659355 h 40 l 20,34.64 -20,34.64 h -40 l -20,-34.64 z"
   id="path46" />
  <path
   d="m 278.94046,70.659355 h 40 l 20,34.64 -20,34.64 h -40 l -20,-34.64 z"
   id="path47" />
  <path
   d="m 398.94046,70.659355 h 40 l 20,34.64 -20,34.64 h -40 l -20,-34.64 z"
   id="path48" />
  <path
   d="m 638.94046,70.659355 h 40 l 20,34.64 -20,34.64 h -40 l -20,-34.64 z"
   id="path49" />
  <path
   d="m 758.94046,70.659355 h 40 l 20,34.64 -20,34.64 h -40 l -20,-34.64 z"
   id="path50" />
  <path
   d="m 518.94046,417.05936 h 40 l 20,34.64 -20,34.64 h -40 l -20,-34.64 z"
   id="path51" />
  <path
   d="m 278.94046,417.05936 h 40 l 20,34.64 -20,34.64 h -40 l -20,-34.64 z"
   id="path52" />
  <path
   d="m 398.94046,417.05936 h 40 l 20,34.64 -20,34.64 h -40 l -20,-34.64 z"
   id="path53" />
  <path
   d="m 638.94046,417.05936 h 40 l 20,34.64 -20,34.64 h -40 l -20,-34.64 z"
   id="path54" />
  <path
   d="m 758.94046,417.05936 h 40 l 20,34.64 -20,34.64 h -40 l -20,-34.64 z"
   id="path55" />
  <path
   d="m 458.94046,590.60153 h 40 l 20,34.64 -20,34.64 h -40 l -20,-34.64 z"
   id="path56" />
  <path
   d="m 218.94046,590.60153 h 40 l 20,34.64 -20,34.64 h -40 l -20,-34.64 z"
   id="path57" />
  <path
   d="m 338.94046,590.60153 h 40 l 20,34.64 -20,34.64 h -40 l -20,-34.64 z"
   id="path58" />
  <path
   d="m 578.94046,590.60153 h 40 l 20,34.64 -20,34.64 h -40 l -20,-34.64 z"
   id="path59" />
  <path
   d="m 698.94046,590.60153 h 40 l 20,34.64 -20,34.64 h -40 l -20,-34.64 z"
   id="path60" />
  <path
   d="m 518.94046,555.96153 h 40 l 20,34.64 -20,34.64 h -40 l -20,-34.64 z"
   id="path61" />
  <path
   d="m 278.94046,555.96153 h 40 l 20,34.64 -20,34.64 h -40 l -20,-34.64 z"
   id="path62" />
  <path
   d="m 398.94046,555.96153 h 40 l 20,34.64 -20,34.64 h -40 l -20,-34.64 z"
   id="path63" />
  <path
   d="m 638.94046,555.96153 h 40 l 20,34.64 -20,34.64 h -40 l -20,-34.64 z"
   id="path64" />
  <path
   d="m 758.94046,555.96153 h 40 l 20,34.64 -20,34.64 h -40 l -20,-34.64 z"
   id="path65" />
  <path
   d="m 518.94046,625.24153 h 40 l 20,34.64 -20,34.64 h -40 l -20,-34.64 z"
   id="path66" />
  <path
   d="m 278.94046,625.24153 h 40 l 20,34.64 -20,34.64 h -40 l -20,-34.64 z"
   id="path67" />
  <path
   d="m 398.94046,625.24153 h 40 l 20,34.64 -20,34.64 h -40 l -20,-34.64 z"
   id="path68" />
  <path
   d="m 638.94046,625.24153 h 40 l 20,34.64 -20,34.64 h -40 l -20,-34.64 z"
   id="path69" />
  <path
   d="m 758.94046,625.24153 h 40 l 20,34.64 -20,34.64 h -40 l -20,-34.64 z"
   id="path70" />
  <path
   d="m 458.94046,521.32153 h 40 l 20,34.64 -20,34.64 h -40 l -20,-34.64 z"
   id="path71" />
  <path
   d="m 218.94046,521.32153 h 40 l 20,34.64 -20,34.64 h -40 l -20,-34.64 z"
   id="path72" />
  <path
   d="m 338.94046,521.32153 h 40 l 20,34.64 -20,34.64 h -40 l -20,-34.64 z"
   id="path73" />
  <path
   d="m 578.94046,521.32153 h 40 l 20,34.64 -20,34.64 h -40 l -20,-34.64 z"
   id="path74" />
  <path
   d="m 698.94046,521.32153 h 40 l 20,34.64 -20,34.64 h -40 l -20,-34.64 z"
   id="path75" />
  <path
   d="m 458.94046,659.88153 h 40 l 20,34.64 -20,34.64 h -40 l -20,-34.64 z"
   id="path76" />
  <path
   d="m 218.94046,659.88153 h 40 l 20,34.64 -20,34.64 h -40 l -20,-34.64 z"
   id="path77" />
  <path
   d="m 338.94046,659.88153 h 40 l 20,34.64 -20,34.64 h -40 l -20,-34.64 z"
   id="path78" />
  <path
   d="m 578.94046,659.88153 h 40 l 20,34.64 -20,34.64 h -40 l -20,-34.64 z"
   id="path79" />
  <path
   d="m 698.94046,659.88153 h 40 l 20,34.64 -20,34.64 h -40 l -20,-34.64 z"
   id="path80" />
  <path
   d="m 518.94046,486.68153 h 40 l 20,34.64 -20,34.64 h -40 l -20,-34.64 z"
   id="path81" />
  <path
   d="m 278.94046,486.68153 h 40 l 20,34.64 -20,34.64 h -40 l -20,-34.64 z"
   id="path82" />
  <path
   d="m 398.94046,486.68153 h 40 l 20,34.64 -20,34.64 h -40 l -20,-34.64 z"
   id="path83" />
  <path
   d="m 638.94046,486.68153 h 40 l 20,34.64 -20,34.64 h -40 l -20,-34.64 z"
   id="path84" />
  <path
   d="m 758.94046,486.68153 h 40 l 20,34.64 -20,34.64 h -40 l -20,-34.64 z"
   id="path85" />
  <path
   d="m 518.94046,694.52153 h 40 l 20,34.64 -20,34.64 h -40 l -20,-34.64 z"
   id="path86" />
  <path
   d="m 278.94046,694.52153 h 40 l 20,34.64 -20,34.64 h -40 l -20,-34.64 z"
   id="path87" />
  <path
   d="m 398.94046,694.52153 h 40 l 20,34.64 -20,34.64 h -40 l -20,-34.64 z"
   id="path88" />
  <path
   d="m 638.94046,694.52153 h 40 l 20,34.64 -20,34.64 h -40 l -20,-34.64 z"
   id="path89" />
  <path
   d="m 758.94046,694.52153 h 40 l 20,34.64 -20,34.64 h -40 l -20,-34.64 z"
   id="path90" />
  <path
   d="m 458.94046,452.04153 h 40 l 20,34.64 -20,34.64 h -40 l -20,-34.64 z"
   id="path91" />
  <path
   d="m 218.94046,452.04153 h 40 l 20,34.64 -20,34.64 h -40 l -20,-34.64 z"
   id="path92" />
  <path
   d="m 338.94046,452.04153 h 40 l 20,34.64 -20,34.64 h -40 l -20,-34.64 z"
   id="path93" />
  <path
   d="m 578.94046,452.04153 h 40 l 20,34.64 -20,34.64 h -40 l -20,-34.64 z"
   id="path94" />
  <path
   d="m 698.94046,452.04153 h 40 l 20,34.64 -20,34.64 h -40 l -20,-34.64 z"
   id="path95" />
  <path
   d="m 458.94046,729.16153 h 40 l 20,34.64 -20,34.64 h -40 l -20,-34.64 z"
   id="path96" />
  <path
   d="m 218.94046,729.16153 h 40 l 20,34.64 -20,34.64 h -40 l -20,-34.64 z"
   id="path97" />
  <path
   d="m 338.94046,729.16153 h 40 l 20,34.64 -20,34.64 h -40 l -20,-34.64 z"
   id="path98" />
  <path
   d="m 578.94046,729.16153 h 40 l 20,34.64 -20,34.64 h -40 l -20,-34.64 z"
   id="path99" />
  <path
   d="m 698.94046,729.16153 h 40 l 20,34.64 -20,34.64 h -40 l -20,-34.64 z"
   id="path100" />
  <path
   d="m 518.94046,763.80153 h 40 l 20,34.64 -20,34.64 h -40 l -20,-34.64 z"
   id="path101" />
  <path
   d="m 278.94046,763.80153 h 40 l 20,34.64 -20,34.64 h -40 l -20,-34.64 z"
   id="path102" />
  <path
   d="m 398.94046,763.80153 h 40 l 20,34.64 -20,34.64 h -40 l -20,-34.64 z"
   id="path103" />
  <path
   d="m 638.94046,763.80153 h 40 l 20,34.64 -20,34.64 h -40 l -20,-34.64 z"
   id="path104" />
  <path
   d="m 758.94046,763.80153 h 40 l 20,34.64 -20,34.64 h -40 l -20,-34.64 z"
   id="path105" />
  <path
   d="m 98.94046,243.85936 h 40 l 20,34.64 -20,34.64 h -40 l -20,-34.64 z"
   id="path106" />
  <path
   d="m 158.94046,209.21936 h 40 l 20,34.64 -20,34.64 h -40 l -20,-34.64 z"
   id="path107" />
  <path
   d="m 158.94046,278.49936 h 40 l 20,34.64 -20,34.64 h -40 l -20,-34.64 z"
   id="path108" />
  <path
   d="m 98.94046,174.57936 h 40 l 20,34.64 -20,34.64 h -40 l -20,-34.64 z"
   id="path109" />
  <path
   d="m 98.94046,313.13936 h 40 l 20,34.64 -20,34.64 h -40 l -20,-34.64 z"
   id="path110" />
  <path
   d="m 158.94046,139.93936 h 40 l 20,34.64 -20,34.64 h -40 l -20,-34.64 z"
   id="path111" />
  <path
   d="m 158.94046,347.77936 h 40 l 20,34.64 -20,34.64 h -40 l -20,-34.64 z"
   id="path112" />
  <path
   d="m 98.94046,105.29936 h 40 l 20,34.64 -20,34.64 h -40 l -20,-34.64 z"
   id="path113" />
  <path
   d="m 98.94046,382.41936 h 40 l 20,34.64 -20,34.64 h -40 l -20,-34.64 z"
   id="path114" />
  <path
   d="m 158.94046,70.659355 h 40 l 20,34.64 -20,34.64 h -40 l -20,-34.64 z"
   id="path115" />
  <path
   d="m 158.94046,417.05936 h 40 l 20,34.64 -20,34.64 h -40 l -20,-34.64 z"
   id="path116" />
  <path
   d="m 98.94046,590.60153 h 40 l 20,34.64 -20,34.64 h -40 l -20,-34.64 z"
   id="path117" />
  <path
   d="m 158.94046,555.96153 h 40 l 20,34.64 -20,34.64 h -40 l -20,-34.64 z"
   id="path118" />
  <path
   d="m 158.94046,625.24153 h 40 l 20,34.64 -20,34.64 h -40 l -20,-34.64 z"
   id="path119" />
  <path
   d="m 98.94046,521.32153 h 40 l 20,34.64 -20,34.64 h -40 l -20,-34.64 z"
   id="path120" />
  <path
   d="m 98.94046,659.88153 h 40 l 20,34.64 -20,34.64 h -40 l -20,-34.64 z"
   id="path121" />
  <path
   d="m 158.94046,486.68153 h 40 l 20,34.64 -20,34.64 h -40 l -20,-34.64 z"
   id="path122" />
  <path
   d="m 158.94046,694.52153 h 40 l 20,34.64 -20,34.64 h -40 l -20,-34.64 z"
   id="path123" />
  <path
   d="m 98.94046,452.04153 h 40 l 20,34.64 -20,34.64 h -40 l -20,-34.64 z"
   id="path124" />
  <path
   d="m 98.94046,729.16153 h 40 l 20,34.64 -20,34.64 h -40 l -20,-34.64 z"
   id="path125" />
  <path
   d="m 158.94046,763.80153 h 40 l 20,34.64 -20,34.64 h -40 l -20,-34.64 z"
   id="path126" />
</g>
<path
   style="fill:#ff0000;stroke-width:1.43541"
   d="m 97.749421,794.13876 c -1.14264,-1.77632 -5.579113,-9.31557 -9.858831,-16.75388 l -7.781305,-13.52422 9.532588,-16.61933 9.532589,-16.61932 19.497418,-0.39823 19.49742,-0.39822 8.31754,14.75229 c 4.57464,8.11376 8.93243,15.76365 9.68397,16.99976 1.02131,1.67983 -1.06579,6.48339 -8.26365,19.01914 l -9.63008,16.77167 h -19.22507 c -18.3646,0 -19.318048,-0.14455 -21.302589,-3.22966 z"
   id="path127" /><path
   style="fill:#ff0000;stroke-width:1.43541"
   d="m 97.804473,725.23923 c -1.11236,-1.77631 -5.541989,-9.39368 -9.84362,-16.92749 l -7.821146,-13.69783 9.451677,-16.76403 9.451678,-16.76404 19.617008,-0.0405 19.61701,-0.0405 9.53603,16.60788 c 5.24481,9.13434 9.33582,17.10861 9.09112,17.72062 -0.24469,0.612 -4.59214,8.31788 -9.66099,17.12418 l -9.2161,16.01144 h -19.1001 c -18.25132,0 -19.189969,-0.14352 -21.122567,-3.22967 z"
   id="path128" /><path
   style="fill:#ff0000;stroke-width:1.43541"
   d="m 152.01422,680.02392 c -4.47015,-7.69736 -8.94737,-15.32596 -9.94939,-16.95244 -1.61495,-2.6214 -0.73804,-4.86116 7.72174,-19.72264 l 9.54357,-16.76541 19.53158,-0.0142 19.53157,-0.0142 9.58516,16.60876 9.58516,16.60875 -7.46721,13.17594 c -4.10697,7.24676 -8.69487,14.95225 -10.19534,17.1233 l -2.72812,3.94737 h -18.51559 -18.51559 z"
   id="path129" /><path
   style="fill:#ff0000;stroke-width:1.43541"
   d="m 209.79466,641.75142 -9.48388,-16.38255 9.46159,-16.6318 9.4616,-16.63181 h 19.59678 19.59679 l 9.57475,16.47274 9.57476,16.47273 -9.41029,16.54162 -9.41029,16.54162 H 239.0175 219.27854 Z"
   id="path130" /><path
   style="fill:#ff0000;stroke-width:1.43541"
   d="m 269.88258,607.16921 -9.59014,-16.515 9.27021,-16.1405 9.27022,-16.1405 19.91371,-0.36409 19.91371,-0.36409 8.97129,15.61227 c 4.93421,8.58676 8.97129,16.35533 8.97129,17.26349 0,0.90817 -4.03708,8.73412 -8.97129,17.39101 l -8.97129,15.73979 -19.59379,0.0163 -19.59378,0.0163 z"
   id="path131" /><path
   style="fill:#ff0000;stroke-width:1.43541"
   d="m 331.71082,575.75966 c -12.61085,-21.42765 -12.42934,-18.15677 -2.00506,-36.13371 l 9.10541,-15.70251 20.0681,-0.34365 20.0681,-0.34366 8.97129,15.71317 c 4.93421,8.64223 8.97129,16.30087 8.97129,17.01918 0,0.71831 -4.08104,8.33552 -9.06899,16.92714 l -9.06899,15.62113 -19.53198,0.39866 -19.53198,0.39866 z"
   id="path132" /><path
   style="fill:#ff0000;stroke-width:1.43541"
   d="m 397.82646,551.55502 c -6.90502,-11.14771 -16.72598,-28.86021 -16.72598,-30.16597 0,-0.85076 4.24914,-8.86421 9.44254,-17.80766 l 9.44254,-16.26082 h 19.02079 19.02079 l 9.2161,16.01145 c 5.06885,8.80629 9.43022,16.55393 9.69193,17.21698 0.26171,0.66304 -3.83975,8.63732 -9.11435,17.72061 l -9.59019,16.51508 h -19.20184 c -18.36335,0 -19.2892,-0.14103 -21.20233,-3.22967 z"
   id="path133" /><path
   style="fill:#ff0000;stroke-width:1.43541"
   d="m 450.15769,503.9091 c -5.04485,-8.99861 -9.17245,-16.78642 -9.17245,-17.30623 0,-0.51981 4.1276,-8.30761 9.17245,-17.30623 l 9.17245,-16.36112 19.43771,-0.0324 19.4377,-0.0324 9.27043,16.11793 c 5.09874,8.86486 9.27043,16.77754 9.27043,17.58373 0,0.80619 -4.16887,8.73255 -9.26415,17.61413 l -9.26416,16.14833 -19.44398,-0.0323 -19.44398,-0.0324 z"
   id="path134" /><path
   style="fill:#ff0000;stroke-width:1.43541"
   d="m 519.31584,484.13112 c -0.79054,-1.00896 -5.42066,-8.70142 -10.28915,-17.09437 l -8.85182,-15.2599 9.69401,-16.6779 9.69401,-16.6779 h 19.45828 19.45827 l 5.13724,8.97129 c 2.82549,4.93422 7.11446,12.52393 9.53106,16.86603 l 4.39381,7.89474 -9.61196,16.50718 -9.61195,16.50717 -18.78223,0.39906 c -13.93175,0.296 -19.15342,-0.0747 -20.21957,-1.4354 z"
   id="path135" /><path
   style="fill:#ff0000;stroke-width:1.43541"
   d="m 523.92344,484.95492 c -3.74708,-0.55241 -5.4703,-2.63001 -13.27147,-16.00062 -4.93088,-8.45118 -9.09049,-15.92046 -9.24356,-16.59839 -0.15307,-0.67794 3.8813,-8.57064 8.96526,-17.53935 l 9.24355,-16.30674 19.378,-0.0293 19.37799,-0.0293 8.97129,16.21347 c 4.93421,8.91741 8.97129,16.74044 8.97129,17.38451 0,0.64407 -4.00739,8.19767 -8.9053,16.78577 l -8.9053,15.61473 h -6.67361 c -3.67049,0 -10.48248,0.2565 -15.13777,0.57 -4.65528,0.3135 -10.40194,0.28432 -12.77037,-0.0648 z"
   id="path136" /><path
   style="fill:#ff0000;stroke-width:1.43541"
   d="m 573.29689,439.5933 c -3.30898,-5.72368 -7.59199,-13.14266 -9.5178,-16.48661 l -3.50146,-6.07991 9.59755,-16.52774 9.59754,-16.52775 19.59378,0.0163 19.59379,0.0163 8.97129,15.73979 c 4.93421,8.65689 8.97129,16.48284 8.97129,17.39101 0,0.90817 -4.03708,8.66335 -8.97129,17.23374 l -8.97129,15.58253 -19.67353,0.0245 L 579.31323,450 Z"
   id="path137" /><path
   style="fill:#ff0000;stroke-width:1.43541"
   d="m 631.77971,402.31278 c -12.70937,-21.60273 -12.53022,-18.35973 -2.00927,-36.37215 l 9.17109,-15.7014 20.00292,-0.33642 20.00292,-0.33643 8.97129,15.78077 c 4.93421,8.67943 8.97129,16.38112 8.97129,17.11488 0,0.73375 -4.07877,8.31729 -9.06394,16.8523 l -9.06394,15.51821 -19.57367,0.3989 -19.57366,0.39889 z"
   id="path138" /><path
   style="fill:#ff0000;stroke-width:1.43541"
   d="m 697.81237,377.87081 c -6.927,-11.10501 -16.71189,-28.6832 -16.71189,-30.02228 0,-0.87171 4.26294,-8.92605 9.4732,-17.89855 l 9.4732,-16.31362 h 18.9358 18.93579 l 9.27043,16.0237 c 5.09874,8.81304 9.48959,16.57577 9.75745,17.25053 0.26786,0.67475 -3.8198,8.64351 -9.08369,17.70836 l -9.57071,16.48153 h -19.2325 c -18.39097,0 -19.32065,-0.14132 -21.24708,-3.22967 z"
   id="path139" /><path
   style="fill:#000080;stroke-width:1.43541"
   d="m 753.96769,336.95212 c -2.94934,-5.32367 -7.24645,-12.90906 -9.54911,-16.85643 l -4.18667,-7.17703 9.65298,-16.50718 9.65297,-16.50717 19.31175,-0.39727 19.31175,-0.39727 9.29253,16.06212 c 5.11088,8.83416 9.49273,16.55733 9.73742,17.16259 0.2447,0.60526 -3.84631,8.57403 -9.09112,17.70836 l -9.53603,16.60788 -19.61701,-0.01 -19.61701,-0.01 z"
   id="path140" /><path
   style="fill:#000080;stroke-width:1.43541"
   d="m 158.99433,761.1244 c -0.77277,-0.98684 -4.16705,-6.63875 -7.54286,-12.55981 -3.3758,-5.92105 -7.28789,-12.70335 -8.69354,-15.07177 l -2.55571,-4.30622 9.59188,-16.50717 9.59189,-16.50718 19.35444,-0.39705 19.35444,-0.39705 9.69876,16.78905 9.69875,16.78905 -9.6147,16.9812 -9.6147,16.98121 h -18.93181 c -13.43916,0 -19.33945,-0.52056 -20.33684,-1.79426 z"
   id="path141" /><path
   style="fill:#000080;stroke-width:1.43541"
   d="m 210.28708,711.87458 c -5.13158,-9.08694 -9.11783,-17.30625 -8.85834,-18.26513 0.25949,-0.95888 4.42836,-8.6872 9.26415,-17.17404 l 8.79235,-15.43063 19.44399,0.0245 19.44398,0.0245 8.85958,15.40611 c 4.87277,8.47337 9.07133,16.1137 9.33014,16.97852 0.25881,0.86482 -3.728,9.08591 -8.85958,18.26909 l -9.33014,16.69668 -19.37799,-0.004 -19.378,-0.004 z"
   id="path142" /><path
   style="fill:#000080;stroke-width:1.43541"
   d="m 278.11518,690.11255 c -1.51821,-2.19348 -6.14321,-9.90433 -10.27776,-17.13521 l -7.51736,-13.14707 9.5531,-16.63762 9.55311,-16.63763 19.61701,0.0509 19.61701,0.0509 9.47449,16.63901 9.4745,16.63902 -9.69216,16.6833 -9.69215,16.6833 -18.6747,0.39963 -18.6747,0.39963 z"
   id="path143" /><path
   style="fill:#000080;stroke-width:1.43541"
   d="m 390.07177,607.85859 c -4.93421,-8.67943 -8.97129,-16.44803 -8.97129,-17.26357 0,-0.81554 4.03708,-8.55372 8.97129,-17.19596 l 8.97129,-15.71317 19.95604,0.34366 19.95604,0.34366 9.30914,16.13693 9.30913,16.13693 -9.35883,16.15972 -9.35883,16.15972 -19.90634,0.33642 -19.90635,0.33643 z"
   id="path144" /><path
   style="fill:#000080;stroke-width:1.43541"
   d="m 337.52529,654.90431 c -1.10802,-1.77632 -5.37491,-8.99187 -9.48198,-16.03455 -8.58667,-14.72418 -8.88135,-12.08004 3.7364,-33.52703 l 7.83503,-13.31756 19.57366,0.3989 19.57367,0.3989 9.06394,15.5182 c 4.98517,8.53501 9.06394,16.11855 9.06394,16.8523 0,0.73376 -4.03708,8.42205 -8.97129,17.0851 l -8.97129,15.751 -19.70375,0.0522 c -18.90731,0.0501 -19.78519,-0.0783 -21.71833,-3.17746 z"
   id="path145" /><path
   style="fill:#000080;stroke-width:1.43541"
   d="m 449.82621,572.51004 -9.50393,-16.696 9.49842,-16.34141 9.49842,-16.3414 19.91922,0.39611 19.91922,0.3961 9.20971,16.03518 9.2097,16.03517 -9.59184,16.62033 -9.59184,16.62033 -19.53157,-0.0142 -19.53158,-0.0142 z"
   id="path146" /><path
   style="fill:#000080;stroke-width:1.43541"
   d="m 570.10124,503.6687 c -5.32533,-9.20885 -9.49675,-17.20048 -9.26982,-17.75918 0.22693,-0.5587 4.56983,-8.23842 9.65088,-17.06603 l 9.23829,-16.05021 19.35411,0.39762 19.35412,0.39762 5.90076,10.04784 c 3.24541,5.52632 7.59217,12.95803 9.65946,16.51491 l 3.75871,6.46706 -9.63655,16.49945 -9.63654,16.49944 -19.3455,0.39742 -19.3455,0.39741 z"
   id="path147" /><path
   style="fill:#000080;stroke-width:1.43541"
   d="m 630.23026,469.04898 c -10.94908,-19.24654 -11.08642,-15.80002 1.48056,-37.15314 l 7.97719,-13.55441 19.53198,0.39867 19.53198,0.39866 9.06899,15.62112 c 4.98795,8.59162 9.06899,16.20346 9.06899,16.91519 0,0.71174 -4.25249,8.70017 -9.44997,17.75208 L 677.99,485.88517 h -19.09094 -19.09093 z"
   id="path148" /><path
   style="fill:#000080;stroke-width:1.43541"
   d="m 260.34966,802.57784 -1.71956,-3.77401 h -19.34819 c -16.6978,0 -19.62584,0.34409 -21.37502,2.51196 -1.88654,2.3381 -1.9708,2.30569 -1.21728,-0.46816 0.55688,-2.04997 -2.21173,-8.21011 -8.87052,-19.73684 l -9.68008,-16.75672 h -19.09399 -19.09399 l -3.00035,5.08521 c -3.77236,6.39368 -5.01022,5.5756 -1.78793,-1.18161 l 2.41498,-5.06427 -9.35215,-16.2857 -9.35215,-16.28569 -20.63289,-0.75712 -20.632884,-0.75711 20.631414,-0.6783 20.63141,-0.67828 9.35363,-16.2857 9.35362,-16.28569 -2.41498,-5.06427 c -3.22229,-6.75721 -1.98443,-7.57529 1.78793,-1.18162 l 3.00035,5.08522 h 19.15017 19.15017 l 9.70857,-16.78858 c 8.5928,-14.85914 9.52567,-17.18995 8.11722,-20.28117 -2.18729,-4.80058 -0.95814,-5.4415 1.94331,-1.01333 2.34367,3.57689 2.66837,3.63332 20.91009,3.63332 h 18.52945 l 2.72814,-3.94737 c 7.99128,-11.56272 17.52663,-30.37774 16.65041,-32.85439 -0.77401,-2.18781 -0.59493,-2.34684 0.98845,-0.87767 1.35125,1.25377 7.8503,1.79426 21.57514,1.79426 h 19.64139 l 9.4193,-16.55744 9.41929,-16.55745 -2.97069,-5.03495 c -1.63388,-2.76921 -2.64772,-5.35791 -2.25298,-5.75265 0.39474,-0.39473 2.06786,1.57065 3.71806,4.36751 l 3.00035,5.08522 19.78524,-0.0163 19.78526,-0.0163 9.16852,-16.08438 c 8.45288,-14.82891 9.04303,-16.41682 7.56084,-20.34357 -2.04161,-5.40885 -0.90573,-6.80154 1.40715,-1.72531 l 1.73682,3.81191 20.16356,-0.39676 20.16355,-0.39674 9.00443,-15.78948 c 4.95244,-8.68421 9.00801,-16.4354 9.01238,-17.22488 0.005,-0.91015 7.56614,-1.27777 20.66243,-1.00461 l 20.65449,0.43079 9.68872,-16.87381 9.68872,-16.8738 -3.92505,-6.98248 c -2.15876,-3.84038 -3.60206,-7.30546 -3.20733,-7.7002 0.39474,-0.39474 2.55661,2.55637 4.80417,6.55802 l 4.08645,7.27571 19.40444,0.001 19.40443,10e-4 9.68008,-16.75673 c 6.65879,-11.52673 9.4274,-17.68686 8.87052,-19.73684 -0.76042,-2.79924 -0.68463,-2.82506 1.24861,-0.42531 1.8193,2.25831 4.27922,2.50819 21.19703,2.15311 l 19.13889,-0.4017 10.03627,-17.58373 10.03627,-17.58373 20.1568,-0.0163 20.15681,-0.0163 9.16852,-16.08438 c 8.45288,-14.82892 9.04303,-16.41682 7.56084,-20.34358 -2.04161,-5.40884 -0.90573,-6.80153 1.40715,-1.7253 l 1.73682,3.81191 20.16356,-0.39676 20.16355,-0.39674 9.00443,-15.78948 c 4.95244,-8.68421 9.00902,-16.29604 9.01462,-16.91519 0.006,-0.61915 -4.24232,-8.53183 -9.4398,-17.58373 l -9.44998,-16.45802 h -19.17345 c -12.65077,0 -19.51286,0.54919 -20.17117,1.61435 -0.58279,0.94299 -1.69673,-0.40012 -2.67859,-3.22967 -0.92449,-2.6642 -5.39581,-11.14185 -9.93628,-18.83922 L 678.0622,279.1866 H 658.911 639.7598 l -9.65173,16.62105 c -11.06459,19.05412 -11.21305,15.59238 1.60275,37.36829 l 7.97718,13.5544 19.56612,-0.39867 19.56611,-0.39866 5.60812,-9.76645 c 3.08446,-5.37155 5.91717,-9.4574 6.29491,-9.07967 0.37773,0.37774 -1.78499,5.0956 -4.80603,10.48416 -3.02106,5.38855 -5.28672,10.76627 -5.03482,11.95048 0.36774,1.7288 0.0949,1.79953 -1.38446,0.35885 -1.28641,-1.25276 -7.59283,-1.79426 -20.8965,-1.79426 h -19.05404 l -2.29582,4.43962 c -1.2627,2.44178 -2.61877,4.11664 -3.01351,3.72191 -0.39474,-0.39474 0.22259,-2.55405 1.37185,-4.79847 2.02374,-3.95225 1.78648,-4.60061 -7.53391,-20.58794 l -9.62345,-16.50717 -19.31175,-0.39727 -19.31174,-0.39727 -9.29254,16.06211 c -5.11088,8.83417 -9.51168,16.61419 -9.77954,17.28894 -0.26786,0.67476 3.8198,8.64352 9.08368,17.70837 l 9.57072,16.48153 h 19.75289 19.75289 l 1.71956,-3.77402 c 2.41667,-5.304 3.26984,-3.58584 1.18855,2.39356 l -1.7296,4.96898 -19.89854,-0.40041 c -14.48714,-0.29152 -20.49641,0.0958 -22.09701,1.42414 -1.87246,1.55401 -2.07241,1.40054 -1.34846,-1.03499 0.58283,-1.96076 -2.18139,-8.04796 -8.79452,-19.36674 l -9.64451,-16.50717 h -19.29721 -19.29722 l -9.82322,16.76937 -9.82322,16.76936 9.57501,16.67578 9.57502,16.67578 20.65449,-0.43079 c 17.59406,-0.36696 20.65448,-0.11176 20.65448,1.72232 0,1.83446 -3.0696,2.0892 -20.74107,1.72134 l -20.74105,-0.43176 -2.33353,4.51252 c -1.28342,2.48189 -2.65647,4.18956 -3.05121,3.79482 -0.39474,-0.39473 0.33343,-2.75039 1.61818,-5.23478 l 2.33586,-4.5171 -9.23019,-16.07084 -9.2302,-16.07085 -19.91923,-0.39612 -19.91922,-0.3961 -9.63024,16.5682 -9.63025,16.56818 9.80303,16.84227 9.80301,16.84227 18.79175,0.40009 c 18.76982,0.39964 18.79458,0.39582 21.19944,-3.27445 3.0826,-4.70467 4.03346,-3.81112 1.68196,1.5806 l -1.81629,4.16458 h -20.67946 -20.67944 l -5.31909,-10.04785 c -2.9255,-5.52632 -7.22855,-13.27751 -9.56233,-17.22488 l -4.24324,-7.17703 -19.99745,-0.34655 -19.99746,-0.34657 -9.52171,16.69793 -9.52171,16.69793 9.74014,16.66297 9.74013,16.66299 19.37276,0.39842 19.37275,0.39841 5.30045,-9.47808 c 2.91524,-5.21295 5.62341,-9.15511 6.01814,-8.76037 0.39474,0.39473 -1.57253,4.81302 -4.37171,9.81842 -3.63145,6.49365 -4.70324,9.71148 -3.74135,11.23278 2.37062,3.74929 1.42263,5.12559 -1.19114,1.7293 -2.43159,-3.15954 -3.19049,-3.25952 -21.79248,-2.87081 l -19.27314,0.40275 -9.49797,16.55922 c -5.22389,9.10759 -9.20973,17.50472 -8.85744,18.66029 0.5164,1.69385 0.27194,1.75331 -1.26136,0.3068 -1.32405,-1.2491 -7.67033,-1.79426 -20.88748,-1.79426 h -18.98557 l -4.56564,7.9799 c -2.5111,4.38895 -4.88859,7.65694 -5.28333,7.2622 -0.39473,-0.39474 1.23531,-4.14718 3.62234,-8.33875 l 4.34004,-7.62105 -9.66157,-16.50718 -9.66155,-16.50717 -19.37704,-0.39762 -19.37703,-0.39763 -9.23829,16.05022 c -5.08106,8.82762 -9.4524,16.5927 -9.71412,17.25575 -0.2617,0.66305 3.83976,8.63732 9.11435,17.72062 l 9.59019,16.51507 h 19.72223 19.72223 l 1.71956,-3.77402 c 2.41667,-5.304 3.26984,-3.58584 1.18855,2.39356 l -1.7296,4.96898 -20.4796,-0.39842 -20.47963,-0.39842 -3.02368,5.12479 c -1.66303,2.81862 -3.34667,4.80181 -3.7414,4.40707 -0.39474,-0.39474 0.68235,-3.09062 2.39351,-5.99083 l 3.11123,-5.27312 -9.77176,-16.67812 -9.77175,-16.67812 -18.87205,-0.39963 -18.87207,-0.39963 -2.75717,3.98814 c -1.51644,2.19349 -6.11741,9.91733 -10.22437,17.16409 l -7.46721,13.17593 9.62613,16.67974 9.62613,16.67975 20.56939,-0.42984 c 17.51797,-0.36608 20.5694,-0.11044 20.56948,1.72327 8e-5,1.83338 -3.02781,2.08807 -20.39089,1.71509 -19.80625,-0.42544 -20.46875,-0.34312 -23.10245,2.87082 -2.5914,3.16231 -2.6569,2.34054 -0.2797,-3.50936 0.40102,-0.98684 -3.40341,-8.89952 -8.45429,-17.58373 l -9.18342,-15.78947 -19.95587,-0.39645 -19.95588,-0.39644 -9.56432,16.53914 -9.56433,16.53916 9.59805,16.51279 9.59804,16.5128 h 19.58893 c 18.64376,0 19.70516,-0.15583 21.99782,-3.22966 2.10424,-2.82122 2.28167,-2.86661 1.40299,-0.35886 -1.28701,3.67314 -1.27236,6.45454 0.0529,10.04785 0.9169,2.48604 0.6954,2.42733 -1.65265,-0.43801 -2.6337,-3.21394 -3.2962,-3.29626 -23.10245,-2.87082 -14.32637,0.30774 -20.39029,-0.039 -20.38866,-1.16573 0.001,-0.88208 -4.07872,-8.63327 -9.06667,-17.22488 l -9.06899,-15.62113 -19.80932,-0.40047 c -17.59144,-0.35563 -20.026224,-0.11456 -21.746603,2.15311 -2.301208,3.03328 -2.651818,1.37627 -0.542672,-2.56471 1.35992,-2.54104 3.181555,-2.77645 21.484145,-2.77645 h 19.99823 l 7.81146,-13.27751 c 12.75047,-21.67261 12.6105,-18.25167 1.53217,-37.44774 l -9.66025,-16.73887 h -18.88564 c -13.13722,0 -19.464547,0.54615 -20.787556,1.79426 -1.53495,1.44807 -1.775571,1.37883 -1.247101,-0.35885 0.528358,-1.73731 4.615467,-2.29171 21.163997,-2.87081 l 20.50919,-0.71771 9.12872,-15.78947 c 5.02079,-8.68421 9.14233,-16.38478 9.15897,-17.11239 0.0166,-0.7276 -4.20874,-8.62279 -9.38973,-17.54486 l -9.41997,-16.22196 -20.24696,-0.39772 C 101.58087,452.22653 97.722065,451.75563 97.187137,450 c -0.529462,-1.73769 -0.289083,-1.80693 1.245877,-0.35885 1.32226,1.24741 7.636146,1.79426 20.716596,1.79426 h 18.81468 l 9.60637,-16.61186 c 5.28351,-9.13651 9.60637,-17.17127 9.60637,-17.855 0,-0.68373 -4.07877,-8.22634 -9.06394,-16.76134 l -9.06394,-15.51821 -19.81437,-0.40047 c -17.59628,-0.35564 -20.03124,-0.11462 -21.751653,2.15311 -2.301208,3.03327 -2.651818,1.37627 -0.542672,-2.56471 1.35992,-2.54104 3.181555,-2.77645 21.484145,-2.77645 h 19.99823 l 7.81146,-13.27751 c 12.80008,-21.75694 12.65703,-18.33664 1.56804,-37.49188 l -9.6646,-16.69473 h -18.9014 c -13.14983,0 -19.480142,0.54599 -20.803316,1.79426 -1.53496,1.44808 -1.775339,1.37884 -1.245877,-0.35885 0.534928,-1.75563 4.393733,-2.22653 20.902993,-2.55082 l 20.24696,-0.39772 9.41997,-16.22196 c 5.18099,-8.92207 9.41997,-16.76664 9.41997,-17.43237 0,-0.66573 -4.23898,-8.5103 -9.41997,-17.43237 l -9.41997,-16.22196 -20.24696,-0.39772 c -16.50926,-0.32429 -20.368065,-0.79519 -20.902993,-2.55082 -0.529462,-1.73769 -0.289083,-1.80693 1.245877,-0.35885 1.323174,1.24827 7.653486,1.79426 20.803316,1.79426 h 18.9014 l 9.6646,-16.69473 c 11.06796,-19.11891 11.20696,-15.66504 -1.49929,-37.2548 l -7.95376,-13.51459 h -19.96146 c -18.26623,0 -20.087646,-0.23579 -21.447365,-2.77645 -2.109146,-3.94097 -1.758536,-5.59799 0.542672,-2.56471 1.720413,2.26772 4.155373,2.50875 21.751653,2.15311 l 19.81437,-0.40047 9.06394,-15.5182 c 4.98517,-8.53501 9.06394,-16.07281 9.06394,-16.75067 0,-0.67786 -4.34782,-8.71261 -9.66183,-17.855 l -9.66182,-16.62254 h -18.99581 c -17.78674,0 -19.097777,0.19055 -20.598005,2.99375 -0.881214,1.64657 -1.925174,2.67079 -2.31991,2.27605 -0.394737,-0.39474 0.0033,-2.06489 0.884503,-3.71145 1.505009,-2.81214 2.800829,-2.99375 21.360312,-2.99375 13.71028,0 20.29798,-0.53987 21.52185,-1.76374 1.39472,-1.39472 1.68003,-1.16948 1.36364,1.07655 -0.22006,1.56216 3.76877,10.10704 8.86405,18.98862 l 9.26415,16.14833 h 19.69044 19.69043 l 9.44254,-16.26082 c 5.1934,-8.94345 9.44199,-16.85613 9.44132,-17.58373 -6.9e-4,-0.74695 9.17565,-1.32292 21.07655,-1.32292 h 21.07779 l 3.84524,7.30558 c 2.11488,4.01807 6.54647,11.93075 9.84799,17.58373 l 6.00277,10.27816 19.67353,-0.001 19.67353,-0.001 9.8738,-17.22341 9.8738,-17.2234 h 20.51214 20.51215 l 9.80543,17.21494 9.80545,17.21494 19.99746,-0.34892 19.99745,-0.34891 4.24324,-7.17703 c 2.33378,-3.94737 6.63785,-11.69857 9.5646,-17.22488 l 5.32137,-10.04785 h 21.03726 c 11.57048,0 21.03669,0.51273 21.03601,1.13939 -6.7e-4,0.62667 4.28263,8.53935 9.51843,17.58373 l 9.51966,16.44435 h 19.70091 19.70092 l 9.50482,-16.46953 c 6.2351,-10.80393 9.19576,-17.34661 8.60644,-19.01914 -0.7339,-2.08286 -0.54435,-2.22114 1.03538,-0.75535 1.34771,1.25048 7.78032,1.79426 21.22528,1.79426 16.66373,0 19.56047,-0.34217 21.26604,-2.51197 1.79233,-2.280198 1.89931,-2.177298 1.15952,1.1153 -0.61696,2.74585 1.40704,7.45456 8.3294,19.37799 l 9.14438,15.75073 19.99787,0.33946 19.99787,0.33946 9.77331,-17.20549 9.77332,-17.20548 h 19.72429 c 13.68354,0 20.26445,-0.54017 21.48804,-1.76374 1.39471,-1.39472 1.68002,-1.16948 1.36363,1.07655 -0.22006,1.56216 3.76876,10.10704 8.86405,18.98862 l 9.26415,16.14833 h 19.62775 c 18.68403,0 19.74359,-0.15529 22.03665,-3.22967 2.09575,-2.80983 2.275,-2.85648 1.37902,-0.35885 -0.56642,1.57895 -0.99,4.38906 -0.94126,6.24469 0.0644,2.4546 -0.34182,2.94348 -1.49103,1.79426 -0.99401,-0.994 -8.80017,-1.57962 -21.05583,-1.57962 h -19.4762 l -9.60686,16.62999 -9.60687,16.62998 9.73602,16.74322 9.736,16.74322 18.39556,0.40321 c 15.95743,0.34976 18.78221,0.0644 21.31293,-2.15311 2.80328,-2.45633 2.8798,-2.45347 1.9563,0.073 -0.52862,1.44615 -0.9601,3.06098 -0.95887,3.58852 10e-4,0.52753 -9.20332,0.77614 -20.45454,0.55245 l -20.45679,-0.40671 -9.26054,16.39072 c -5.09329,9.01489 -9.25289,16.85785 -9.24356,17.42878 0.009,0.57095 4.17659,8.40126 9.26054,17.40072 l 9.24356,16.36264 20.45679,-0.37037 c 11.25122,-0.2037 20.45576,0.14236 20.45454,0.76902 -0.001,0.62667 4.19633,8.39203 9.32791,17.25638 5.13158,8.86434 9.33014,16.87296 9.33014,17.79696 0,0.92399 -4.21912,8.89489 -9.3758,17.71311 -6.89766,11.79538 -9.12363,16.84427 -8.42168,19.10193 0.92389,2.97152 0.86334,2.98777 -1.91062,0.51247 -2.48801,-2.22011 -5.28905,-2.50329 -21.29762,-2.15311 l -18.43283,0.40321 -9.68056,16.87773 -9.68055,16.87772 9.58798,16.49548 9.58797,16.49548 h 19.47692 c 12.25619,0 20.06255,-0.58562 21.05656,-1.57962 1.14921,-1.14922 1.55548,-0.66035 1.49103,1.79426 -0.0487,1.85563 0.37484,4.66574 0.94126,6.24469 0.89598,2.49764 0.71673,2.45099 -1.37902,-0.35885 -2.29266,-3.07383 -3.35409,-3.22967 -21.99709,-3.22967 h -19.58821 l -9.6276,16.66588 -9.62759,16.66586 9.68373,16.70734 9.68374,16.70733 h 20.42613 c 12.66048,0 20.42613,0.54572 20.42613,1.43541 0,0.88968 -7.76461,1.43541 -20.42302,1.43541 h -20.42301 l -9.61085,16.50717 -9.61084,16.50718 3.2104,5.74163 c 1.76573,3.15789 6.07585,10.76591 9.57804,16.90668 l 6.36762,11.16506 20.45679,-0.39951 c 11.25122,-0.21972 20.45576,0.0321 20.45454,0.55965 -0.001,0.52754 0.4158,2.14237 0.92673,3.58852 0.76006,2.15128 0.57736,2.30312 -1.00478,0.8351 -1.35016,-1.25276 -7.8285,-1.79426 -21.46614,-1.79426 H 759.1649 l -9.5426,16.50155 -9.54258,16.50157 9.59805,16.51279 9.59804,16.5128 h 19.47692 c 12.25619,0 20.06255,-0.58562 21.05656,-1.57962 1.14921,-1.14922 1.55548,-0.66035 1.49103,1.79426 -0.0487,1.85563 0.37484,4.66574 0.94126,6.24469 0.89598,2.49764 0.71673,2.45099 -1.37902,-0.35885 -2.29293,-3.0742 -3.3531,-3.22967 -22.02378,-3.22967 h -19.61487 l -5.13725,8.9713 c -2.82548,4.93421 -7.11537,12.52392 -9.53307,16.86602 l -4.39583,7.89474 9.68391,16.50718 9.68392,16.50718 h 20.3581 c 12.6145,0 20.35847,0.54598 20.35906,1.4354 6e-4,0.90884 -7.50333,1.28621 -20.45582,1.0287 l -20.45679,-0.40671 -9.26054,16.39073 c -5.09329,9.01488 -9.21811,16.94909 -9.16626,17.63158 0.0519,0.68248 4.21909,8.51643 9.26054,17.40876 l 9.16626,16.1679 20.45679,-0.37843 c 12.93364,-0.23925 20.45642,0.14947 20.45582,1.05699 -5.9e-4,0.88973 -7.77486,1.43541 -20.44997,1.43541 h -20.449 l -9.91074,17.22488 -9.91073,17.22488 -19.27947,-0.43801 c -13.26974,-0.30147 -19.91433,0.0889 -21.31617,1.25232 -1.63469,1.35666 -2.04269,1.15978 -2.06696,-0.99741 -0.0166,-1.47824 -4.13878,-9.79298 -9.16032,-18.47719 l -9.13006,-15.78947 -19.40527,-0.39843 -19.40526,-0.39844 -9.47269,16.49761 c -5.21,9.07366 -9.47271,17.5677 -9.47271,18.87561 0,1.86609 -0.42903,2.02197 -1.99288,0.72409 -1.34222,-1.11393 -8.25484,-1.52281 -21.17225,-1.25231 l -19.17937,0.40163 -9.04639,-15.73289 c -4.97552,-8.65309 -9.73763,-16.56577 -10.58247,-17.58373 -1.11216,-1.34008 -6.73607,-1.84746 -20.37943,-1.83857 l -18.84339,0.0123 -9.70141,17.06287 c -6.34837,11.16555 -9.40856,17.98282 -8.8541,19.72457 0.80062,2.51509 0.73329,2.52334 -1.22239,0.14974 -1.77664,-2.1563 -4.69954,-2.51196 -20.64349,-2.51196 -12.53244,0 -19.13409,0.56027 -20.29631,1.72249 -1.33971,1.3397 -1.72249,1.16625 -1.72249,-0.78054 0,-1.37667 -4.29403,-9.92059 -9.54229,-18.98649 l -9.54231,-16.48347 -19.30627,0.39797 -19.30625,0.39798 -9.74919,16.67848 c -6.70588,11.47211 -9.35738,17.29712 -8.49399,18.66029 2.31562,3.65611 1.26465,4.89073 -1.31228,1.54157 -2.47151,-3.21213 -3.12861,-3.29789 -21.99642,-2.87082 l -19.4488,0.44024 -9.97548,-17.22488 -9.97548,-17.22488 -19.31694,-0.39705 -19.31694,-0.39706 -9.78373,16.83225 c -8.65854,14.89645 -9.60101,17.23331 -8.19488,20.31939 0.87386,1.91793 1.26587,3.8101 0.87113,4.20484 -0.39474,0.39474 -1.4915,-0.9806 -2.43725,-3.0563 z m 7.75938,-21.97112 9.68296,-16.76171 -9.7094,-16.95449 -9.70939,-16.95451 -19.37799,-0.0144 -19.378,-0.0144 -9.74872,17.0053 -9.74872,17.00527 9.72156,16.7253 9.72155,16.72529 h 19.43159 19.43161 z m 119.88667,0.25452 c 10.67557,-18.25515 10.79057,-15.74829 -1.69582,-36.96172 L 378.0622,729.90431 H 358.911 339.7598 l -9.65173,16.62104 c -11.06459,19.05412 -11.21305,15.59238 1.60275,37.36829 l 7.97718,13.5544 19.53704,-0.39867 19.53703,-0.39865 z M 508.03367,780.77 c 5.28486,-9.12915 9.40722,-17.10342 9.16079,-17.72062 -0.24643,-0.61721 -4.5953,-8.32734 -9.66415,-17.13363 l -9.21609,-16.01144 -19.49204,0.0444 -19.49204,0.0444 -9.24356,16.30674 c -5.08395,8.96871 -9.25119,16.77387 -9.26054,17.34482 -0.009,0.57093 4.15027,8.38868 9.24356,17.37273 l 9.26054,16.33467 19.54734,0.008 19.54733,0.008 z m 115.29436,8.34483 c 2.53698,-4.53947 6.82533,-12.12918 9.52966,-16.86603 l 4.91698,-8.61244 -9.58511,-16.50717 -9.58511,-16.50718 -19.5352,-0.39823 -19.53519,-0.39822 -8.31755,14.75229 c -4.57464,8.11377 -8.93242,15.76365 -9.68396,16.99975 -1.02132,1.67984 1.06579,6.4834 8.26364,19.01914 l 9.63008,16.77168 h 19.64453 19.64453 z m 120.69363,-1.4354 c 3.09735,-5.32895 7.42626,-12.92488 9.61981,-16.87984 l 3.98825,-7.19086 -9.69905,-16.89179 -9.69904,-16.8918 -19.42688,0.39844 -19.42689,0.39843 -9.65375,16.58565 -9.65375,16.58565 7.80076,13.55789 c 4.29043,7.45684 8.73566,15.01124 9.8783,16.78756 1.98503,3.08589 2.93589,3.22966 21.35911,3.22966 h 19.28158 z m -536.50143,-41.73097 9.43411,-17.06547 -8.81155,-15.30219 c -4.84635,-8.4162 -9.4556,-15.94624 -10.24278,-16.73342 -0.90383,-0.90382 -8.30617,-1.08329 -20.08777,-0.48701 l -18.65654,0.94424 -9.02929,15.60391 c -5.57591,9.63595 -8.68876,16.49131 -8.13894,17.92414 0.4897,1.27613 4.43065,8.3357 8.75767,15.68793 4.32701,7.35222 7.8673,13.90663 7.8673,14.56534 0,0.65871 8.88158,1.36199 19.73684,1.56285 l 19.73684,0.36518 z m 120.38362,0.5747 c 5.08395,-8.96871 9.24356,-16.77016 9.24356,-17.33656 0,-0.56639 -4.15961,-8.36784 -9.24356,-17.33655 l -9.24356,-16.30674 -19.54734,-0.0444 -19.54733,-0.0444 -9.51966,16.44434 c -5.2358,9.04439 -9.51964,16.82386 -9.51964,17.28771 0,0.46385 4.28384,8.24333 9.51964,17.28771 l 9.51966,16.44435 19.54733,-0.0444 19.54734,-0.0444 z m 119.83065,0.13468 c 5.19339,-8.94344 9.44253,-16.80551 9.44253,-17.47124 0,-0.66572 -4.25949,-8.54562 -9.46554,-17.51085 l -9.46556,-16.30045 -19.49758,0.39847 -19.49757,0.39848 -9.66022,16.50718 c -8.47119,14.4754 -9.44089,16.86053 -7.87834,19.37799 0.98004,1.57894 4.55159,7.71531 7.93681,13.63636 11.03612,19.30325 7.48744,17.22488 29.41042,17.22488 h 19.2325 z m 119.84924,0.27577 c 5.06578,-8.77929 9.21051,-16.7382 9.21051,-17.68649 0,-0.94829 -4.11503,-8.93956 -9.14453,-17.75836 l -9.14453,-16.03421 h -19.47043 -19.47042 l -9.67669,16.75085 -9.67668,16.75085 9.6147,16.9812 9.6147,16.98121 19.46641,-0.0113 19.46643,-0.0114 z m 120.28155,-0.52213 c 4.95237,-8.68421 9.00431,-16.4354 9.00431,-17.22488 0,-0.78947 -4.05299,-8.54067 -9.00665,-17.22488 l -9.00664,-15.78947 h -19.86595 -19.86595 l -9.42784,16.41099 -9.42784,16.411 4.03426,7.27321 c 2.21882,4.00028 6.57892,11.65124 9.68911,17.00216 l 5.65487,9.72893 19.60701,-0.39878 19.60701,-0.3988 z M 265.03555,715.55024 c 3.70825,-6.71053 7.40153,-12.93955 8.20728,-13.84226 0.80573,-0.90273 1.07319,-2.03311 0.59433,-2.51196 -0.47885,-0.47887 -0.0789,-0.87066 0.8887,-0.87066 0.96765,0 1.36015,-0.64593 0.87223,-1.43541 -0.48793,-0.78947 -0.23933,-1.4354 0.55241,-1.4354 0.79176,0 -2.9138,-7.58972 -8.23457,-16.86603 l -9.67412,-16.86603 -19.31229,-0.37361 -19.3123,-0.37361 -7.89473,14.55781 c -4.34211,8.00679 -8.85787,15.55123 -10.03503,16.76544 -1.61841,1.66933 -1.70374,2.35316 -0.34991,2.80442 0.98471,0.32825 1.42527,1.18757 0.97903,1.90961 -0.44625,0.72204 -0.0892,1.31281 0.79347,1.31281 0.88266,0 1.23972,0.59077 0.79347,1.31281 -0.44625,0.72204 -0.29149,1.52945 0.34392,1.79426 0.6354,0.2648 3.95248,5.64891 7.37129,11.9647 3.41881,6.31579 6.87267,12.30876 7.67524,13.31772 1.08165,1.3598 6.31583,1.73121 20.22925,1.4354 l 18.77003,-0.39905 z m 121.26434,-1.07656 c 12.48639,-21.21343 12.37139,-18.70656 1.69582,-36.96172 l -9.23364,-15.78947 -19.53703,-0.39866 -19.53704,-0.39867 -7.97718,13.5544 c -12.8158,21.77591 -12.66734,18.31417 -1.60275,37.36829 l 9.65173,16.62105 h 19.1512 19.1512 z m 121.17609,-2.02848 c 5.09874,-8.81303 9.47064,-16.51891 9.71534,-17.12418 0.24469,-0.60526 -3.84632,-8.57402 -9.09114,-17.70835 l -9.53602,-16.60789 -19.617,0.0245 -19.61702,0.0245 -8.85957,15.40611 c -4.87278,8.47336 -9.07134,16.1137 -9.33014,16.97852 -0.25882,0.86482 3.72799,9.08591 8.85957,18.26908 l 9.33014,16.69668 19.43771,0.0324 19.4377,0.0323 z m 120.71358,-1.20118 9.58511,-16.50718 -4.91698,-8.61244 c -2.70433,-4.73684 -6.99268,-12.32655 -9.52966,-16.86603 l -4.6127,-8.25359 H 599.0708 579.42627 l -9.53602,16.60789 c -5.24482,9.13433 -9.33583,17.1086 -9.09114,17.72061 0.2447,0.612 4.60213,8.33532 9.68319,17.16294 l 9.23829,16.05022 19.44192,-0.39762 19.44194,-0.39762 z m 119.76384,0.37266 9.67632,-16.85221 -3.98825,-7.19085 c -2.19355,-3.95496 -6.53295,-11.56886 -9.64314,-16.91979 l -5.65487,-9.72893 -19.62228,0.39879 -19.62228,0.3988 -9.5453,16.46074 c -8.41043,14.50368 -9.33181,16.80759 -7.74964,19.37799 0.9876,1.60448 5.45304,9.2151 9.92318,16.91246 l 8.12754,13.99522 h 19.2112 19.2112 z M 318.19477,691.69385 c 1.1812,-0.71015 18.41223,-30.59469 18.39792,-31.90831 -0.006,-0.51364 -4.06211,-8.03913 -9.01448,-16.72334 l -9.00431,-15.78947 -19.39277,-0.3974 -19.39276,-0.3974 -9.47862,16.69642 -9.47861,16.69642 6.80635,11.69142 c 3.7435,6.43026 8.30248,14.18523 10.13107,17.23323 l 3.32471,5.54183 18.06581,-1.03014 c 9.93619,-0.56659 18.50225,-1.29255 19.03569,-1.61326 z m 129.60756,-14.36944 c 11.089,-19.15524 11.23205,-15.73494 -1.56805,-37.49187 l -7.81145,-13.27752 -19.68988,0.0509 -19.68989,0.0509 -9.51745,16.71352 -9.51745,16.71353 3.94817,6.56094 c 2.1715,3.60851 6.64433,11.24396 9.93962,16.96764 l 5.99145,10.4067 h 19.12517 19.12516 z m 120.27032,-0.64721 9.74031,-16.62425 -9.52824,-16.74895 -9.52826,-16.74898 h -19.72319 -19.72321 l -9.58019,16.60015 -9.5802,16.60015 9.73377,17.15028 9.73378,17.1503 19.35756,-0.37724 19.35756,-0.37722 z m 119.65638,0.83476 c 5.03785,-8.68421 8.99851,-16.76195 8.80147,-17.95053 -0.19704,-1.18858 -4.23385,-9.10394 -8.97069,-17.58969 l -8.61244,-15.42863 -20.05237,0.36481 -20.05238,0.36481 -9.00443,15.78947 c -4.95244,8.68421 -9.00902,16.29604 -9.01462,16.91519 -0.006,0.61915 4.25254,8.54964 9.46254,17.62331 l 9.47269,16.4976 19.40526,-0.39844 19.40527,-0.39842 z M 386.57216,643.80382 c 4.88531,-8.67106 8.88239,-16.87525 8.88239,-18.23153 0,-1.3563 -3.70114,-9.11825 -8.22476,-17.24881 l -8.22475,-14.78281 -7.92357,-0.009 c -4.35797,-0.005 -13.09104,-0.40692 -19.40683,-0.89374 l -11.48325,-0.88514 -7.89474,13.89852 c -4.3421,7.64419 -8.70215,14.78254 -9.68899,15.86298 -2.14736,2.35104 -2.37592,6.47574 -0.35886,6.47574 0.78948,0 1.43541,0.58522 1.43541,1.30048 0,0.71526 3.37883,7.01311 7.50853,13.99521 4.12969,6.98211 7.60158,13.17919 7.71531,13.7713 0.11373,0.5921 0.28752,1.39952 0.38621,1.79425 0.0987,0.39474 8.77804,0.71771 19.28747,0.71771 h 19.10805 z m 113.33212,11.81819 c 1.50226,-2.17105 6.1352,-9.89999 10.29546,-17.1754 l 7.56409,-13.22804 -9.30313,-16.1978 -9.30313,-16.1978 -19.91923,-0.39612 -19.91922,-0.3961 -9.61715,16.54568 -9.61714,16.54566 7.99213,13.99398 c 4.39566,7.69669 8.90223,15.44733 10.0146,17.22364 1.92752,3.07805 2.89239,3.22967 20.55192,3.22967 h 18.52945 z m 128.13781,-13.4637 9.71631,-16.69335 -9.49053,-16.71743 -9.49054,-16.71742 -19.97223,0.39643 -19.97224,0.39643 -9.27577,16.15017 -9.27577,16.15019 5.37613,9.68713 c 2.95687,5.32793 7.53748,13.09701 10.17913,17.26463 l 4.803,7.5775 18.84309,-0.40047 18.8431,-0.40045 z m 110.78172,14.89911 c 2.67785,-3.07518 18.35322,-30.28742 18.35322,-31.86095 0,-0.62219 -4.0811,-8.16076 -9.06911,-16.75237 l -9.06912,-15.62113 -19.99787,-0.37241 -19.99787,-0.37238 -8.97129,15.76963 c -4.93421,8.67332 -8.97129,16.54147 -8.97129,17.48479 0,0.94332 4.24915,9.03251 9.44253,17.97596 l 9.44255,16.26082 h 18.32543 c 15.66254,0 18.64326,-0.36501 20.51282,-2.51196 z M 437.97413,621.52615 c 0.88579,-0.26489 5.54854,-7.34483 10.3617,-15.73322 l 8.75117,-15.25159 -8.92627,-15.67301 -8.92628,-15.67301 -13.99522,-0.34582 c -7.69736,-0.19019 -16.72155,-0.37517 -20.05375,-0.41106 l -6.05853,-0.0652 -8.21947,14.35406 c -4.52071,7.89474 -8.2537,15.81863 -8.29553,17.60864 -0.0643,2.75063 11.78427,25.97846 16.0768,31.51685 1.00703,1.29935 6.09173,1.5484 19.51834,0.95604 9.9861,-0.44057 18.88127,-1.01776 19.76704,-1.28265 z m 130.2897,-14.34205 9.55193,-16.50012 -9.48225,-16.51424 -9.48227,-16.51424 h -19.8328 -19.8328 l -9.54329,16.4343 -9.54327,16.43429 9.52005,16.58007 9.52006,16.58005 h 19.78635 19.78635 z m 119.65483,0.7277 c 4.93421,-8.65689 8.97129,-16.41577 8.97129,-17.24194 0,-0.82618 -4.03708,-8.58506 -8.97129,-17.24195 l -8.97129,-15.7398 -20.0957,0.008 -20.09569,0.008 -8.61244,15.37974 c -4.73684,8.45885 -8.80206,16.09935 -9.0338,16.97887 -0.37285,1.41501 13.63599,27.19003 17.29847,31.82767 1.01074,1.27984 7.02518,1.78958 20.97807,1.77795 l 19.56109,-0.0163 z m -180.3206,-35.41577 9.51194,-16.71002 -8.81918,-15.21357 -8.81918,-15.21359 -12.17601,-0.65825 -12.17601,-0.65823 12.20095,-0.86859 c 11.42156,-0.81312 10.96031,-0.88568 -7.22067,-1.13603 l -19.42162,-0.26742 -9.64536,16.44203 c -5.30495,9.0431 -9.64536,16.91464 -9.64536,17.49232 0,1.1577 15.38021,28.8689 17.61377,31.73551 0.99319,1.27467 6.85479,1.79014 20.24141,1.78005 l 18.84338,-0.0142 z m 116.25968,7.73963 c 2.85859,-4.91909 7.16108,-12.49643 9.56108,-16.83853 l 4.36364,-7.89474 -9.66494,-16.50717 -9.66495,-16.50718 -19.31819,-0.39731 -19.31819,-0.3973 -9.28608,16.15083 c -5.10735,8.88296 -9.50525,16.66301 -9.77311,17.28899 -0.26786,0.62597 3.8198,8.55482 9.08368,17.61967 l 9.57072,16.48153 19.62444,-0.0275 19.62445,-0.0275 z m 122.37654,-4.27872 c 12.75167,-21.67463 12.61361,-18.24632 1.50966,-37.48677 l -9.68278,-16.77788 -19.32003,0.39787 -19.32002,0.39788 -9.13007,15.78947 c -5.02154,8.68421 -9.14368,16.62439 -9.16032,17.64485 -0.0166,1.02046 4.00684,8.9129 8.94105,17.53878 l 8.97129,15.68341 19.68989,0.0449 19.68988,0.045 z M 208.10019,538.1768 c 5.24481,-9.13432 9.33582,-17.10308 9.09112,-17.70835 -0.24469,-0.60527 -4.62654,-8.32843 -9.73742,-17.1626 l -9.29253,-16.06211 -19.38769,0.39727 -19.38768,0.39727 -9.60596,16.50717 -9.60595,16.50718 3.2104,5.74163 c 1.76573,3.15789 6.07584,10.74074 9.57804,16.85078 l 6.36762,11.10916 19.61701,0.0152 19.61701,0.0152 z m 360.00535,-0.0425 9.67798,-16.65033 -9.70516,-17.06945 -9.70515,-17.06944 -19.37799,0.004 -19.378,0.004 -9.74242,17.01195 -9.74242,17.01197 9.6598,16.70424 9.6598,16.70425 h 19.48777 19.48779 z m 119.67506,0.86088 c 4.88517,-8.28948 8.91963,-16.04067 8.96548,-17.22489 0.0459,-1.18421 -4.02515,-9.25837 -9.04669,-17.94258 l -9.13006,-15.78947 -19.40527,-0.39843 -19.40526,-0.39844 -9.61365,16.74309 c -11.03005,19.20984 -11.17919,15.7826 1.63457,37.56272 l 7.83502,13.31756 19.64188,-0.39889 19.64187,-0.3989 z m -420.13088,-34.6945 c 5.0295,-8.81881 9.14453,-16.78285 9.14453,-17.69785 0,-0.915 -4.11503,-8.87904 -9.14453,-17.69785 l -9.14453,-16.03421 h -19.5037 -19.50369 l -9.27043,16.11793 c -5.09874,8.86485 -9.27043,16.77753 -9.27043,17.58373 0,0.8062 4.16887,8.73255 9.26415,17.61413 l 9.26415,16.14833 h 19.50998 19.50997 z m 118.16268,3.11555 c 3.85728,-6.71053 8.18377,-14.13876 9.61443,-16.50718 l 2.60117,-4.30622 -9.64654,-16.50718 -9.64655,-16.50717 h -19.80525 -19.80525 l -9.42784,16.41099 -9.42784,16.411 4.03426,7.27321 c 2.21882,4.00028 6.57892,11.65124 9.68911,17.00216 l 5.65487,9.72893 19.57609,-0.39879 19.57609,-0.3988 z m 224.95315,11.46735 7.89474,-0.0331 8.97129,-15.58253 c 4.93421,-8.57038 8.97129,-16.06968 8.97129,-16.6651 0,-0.59542 -4.03708,-8.09472 -8.97129,-16.6651 l -8.97129,-15.58253 -7.89474,-0.0331 c -4.34211,-0.0182 -13.0622,-0.41187 -19.37799,-0.8748 l -11.48325,-0.84171 -5.02393,9.07259 c -11.65297,21.04383 -14.20457,26.28759 -13.14827,27.02085 0.61374,0.42605 4.95356,7.77467 9.64404,16.33027 l 8.52816,15.55561 11.48325,-0.8341 c 6.31579,-0.45875 15.03588,-0.849 19.37799,-0.86721 z m 133.25611,-8.23769 c 3.09735,-5.32894 7.45209,-12.97112 9.6772,-16.98262 l 4.04563,-7.29364 -9.74928,-16.78906 -9.74928,-16.78905 -19.50861,0.39847 -19.50863,0.39849 -9.65881,16.50717 -9.65881,16.50718 2.53398,4.30622 c 1.3937,2.36842 4.98039,8.50479 7.97044,13.63636 10.32026,17.71186 6.82687,15.78948 28.69304,15.78948 h 19.28158 z m -536.5394,-40.87315 c 5.09528,-8.86181 9.47828,-16.60945 9.73999,-17.21698 0.26171,-0.60752 -3.83975,-8.53638 -9.11435,-17.61968 l -9.59019,-16.51507 h -19.62022 -19.62023 l -9.6211,16.65462 -9.62109,16.65463 8.76498,15.28317 c 4.82074,8.40575 9.40271,16.0906 10.18215,17.07744 1.00537,1.27289 6.9118,1.79426 20.32653,1.79426 h 18.90937 z m 120.67141,-1.11249 9.679,-16.50718 -4.38874,-7.89474 c -2.41381,-4.3421 -6.7276,-11.91944 -9.58619,-16.83852 l -5.19745,-8.94381 -19.67353,-0.0275 -19.67353,-0.0275 -5.63154,9.689 c -3.09735,5.32895 -7.40681,12.91866 -9.57658,16.86603 l -3.94502,7.17703 9.81178,16.9046 9.81179,16.90458 19.34549,-0.3974 19.34551,-0.39743 z m 358.64755,1.07655 c 5.0113,-8.88158 9.11601,-16.89228 9.12161,-17.80155 0.006,-0.90928 -3.79861,-8.49899 -8.4538,-16.86603 l -8.46399,-15.2128 -7.92357,-0.009 c -4.35797,-0.005 -13.09104,-0.40735 -19.40683,-0.89472 l -11.48325,-0.88612 -8.55438,14.88994 c -4.7049,8.18947 -9.06495,15.10524 -9.689,15.36839 -1.4648,0.61772 -1.47912,5.59403 -0.0179,6.22011 0.6142,0.26315 4.96127,7.42224 9.66016,15.90909 l 8.54344,15.43062 h 18.77804 18.77803 z m -418.71701,-35.86737 9.76035,-16.84821 -9.56633,-16.52499 -9.56634,-16.52498 h -19.78635 -19.78635 l -9.52961,16.59671 -9.52962,16.59671 8.89927,15.34108 c 4.8946,8.43761 9.54607,16.1666 10.33661,17.17556 1.06617,1.36074 6.28841,1.73142 20.22268,1.43541 l 18.78534,-0.39906 z m 119.35577,1.10792 c 5.19748,-9.0519 9.44997,-17.14108 9.44997,-17.97595 0,-0.83487 -4.03708,-8.61428 -8.97129,-17.2876 l -8.97129,-15.76963 -20.07114,0.37238 -20.07112,0.37241 -8.88223,15.07177 c -4.88524,8.28947 -8.93337,15.79481 -8.99587,16.67852 -0.0625,0.88372 4.1602,9.11937 9.38376,18.30143 l 9.49736,16.69469 H 358.89906 377.99 Z m 341.44747,15.39679 c -4.90138,-0.27943 -13.29851,-0.2815 -18.66029,-0.005 -5.36179,0.27693 -1.35156,0.50556 8.9116,0.50807 10.26315,0.003 14.65006,-0.22406 9.74869,-0.50351 z m -520.42675,-51.73945 9.30313,-16.1978 -7.56409,-13.22804 c -4.16026,-7.27541 -8.80627,-15.02269 -10.32449,-17.21618 l -2.76039,-3.98815 -18.8268,0.39964 -18.82679,0.39963 -9.68071,16.87773 -9.6807,16.87772 9.60963,16.53274 9.60963,16.53273 19.91922,-0.3961 19.91922,-0.39611 z m 119.8285,0.23567 9.4692,-16.67986 -9.71631,-16.69335 -9.71632,-16.69336 -18.8431,-0.40045 -18.84309,-0.40047 -4.803,7.5775 c -2.64165,4.16762 -7.22557,11.94259 -10.18645,17.2777 l -5.38345,9.70022 3.50694,6.08926 c 1.92882,3.34909 6.21428,10.77227 9.52328,16.49595 l 6.01633,10.4067 H 299.06661 318.82 Z m 119.81872,0.34101 c 4.98801,-8.59162 9.06911,-16.13019 9.06911,-16.75238 0,-1.57353 -15.67537,-28.78577 -18.35322,-31.86094 -1.86956,-2.14696 -4.85028,-2.51197 -20.51282,-2.51197 h -18.32543 l -9.44255,16.26082 c -5.19338,8.94345 -9.44253,17.03264 -9.44253,17.97596 0,0.94332 4.03708,8.81147 8.97129,17.48479 l 8.97129,15.76964 19.99787,-0.37239 19.99787,-0.3724 z m -179.90785,-34.81832 9.66162,-16.70739 -9.76468,-16.66581 -9.76467,-16.66582 -19.35756,-0.37723 -19.35756,-0.37724 -9.73377,17.1503 -9.73378,17.15028 9.5802,16.60015 9.58019,16.60015 h 19.6142 19.61419 z m 119.35974,1.26063 c 4.73684,-8.46923 8.77365,-16.37107 8.97069,-17.55964 0.19704,-1.18859 -3.76362,-9.26633 -8.80147,-17.95054 l -9.1597,-15.78947 -19.40527,-0.39843 -19.40526,-0.39844 -9.47269,16.4976 c -5.21,9.07367 -9.47271,16.96304 -9.47271,17.5319 0,1.14638 15.39821,28.87599 17.61377,31.71952 0.99849,1.28149 6.98834,1.78738 20.95911,1.77017 l 19.56109,-0.0241 z m 120.5636,-1.09504 9.60571,-16.54179 -9.75492,-17.22887 -9.75493,-17.22887 -19.35175,0.39747 -19.35175,0.39745 -9.679,16.50717 -9.67901,16.50718 4.38874,7.89474 c 2.41381,4.3421 6.7276,11.91944 9.58619,16.83852 l 5.19745,8.94381 19.59379,0.0275 19.59378,0.0275 z M 208.10019,330.04283 c 5.24481,-9.13432 9.33582,-17.10308 9.09112,-17.70835 -0.24469,-0.60527 -4.61659,-8.31115 -9.71533,-17.12417 l -9.27043,-16.02371 -19.4377,0.0324 -19.43771,0.0324 L 150,295.94799 c -5.13158,9.18317 -9.11839,17.40426 -8.85958,18.26908 0.25881,0.86482 4.45737,8.50516 9.33014,16.97852 l 8.85958,15.40611 19.61701,0.0245 19.61701,0.0245 z m 115.22784,8.3543 c 2.53698,-4.53947 6.82533,-12.12919 9.52966,-16.86603 l 4.91698,-8.61244 -9.58511,-16.50718 -9.58511,-16.50717 -19.44194,-0.39763 -19.44192,-0.39762 -9.23829,16.05022 c -5.08106,8.82762 -9.43849,16.55094 -9.68319,17.16294 -0.24469,0.61201 3.84632,8.58629 9.09114,17.72061 l 9.53602,16.60789 h 19.64453 19.64453 z m 120.69363,-1.43541 c 3.09735,-5.32894 7.42626,-12.92487 9.61981,-16.87983 l 3.98825,-7.19086 -9.69905,-16.8918 -9.69904,-16.89179 -19.42688,0.39844 -19.42689,0.39843 -9.65375,16.58565 -9.65375,16.58565 7.80076,13.55789 c 4.29043,7.45683 8.73566,15.01124 9.8783,16.78755 1.98503,3.0859 2.93589,3.22967 21.35911,3.22967 h 19.28158 z m 124.08388,-6.96135 9.67798,-16.65033 -9.70516,-17.06945 -9.70515,-17.06944 -19.37799,0.004 -19.378,0.004 -9.74242,17.01195 -9.74242,17.01197 9.6598,16.70424 9.6598,16.70425 h 19.48777 19.48779 z M 806.409,331.9378 c 4.40918,-8.09211 8.6548,-15.44432 9.4347,-16.33826 0.96339,-1.10423 0.18488,-3.88633 -2.42816,-8.67751 -2.11539,-3.8787 -6.42989,-11.76918 -9.58779,-17.53442 l -5.74163,-10.48226 -11.48325,0.84973 c -6.31579,0.46734 -15.03588,0.86462 -19.37799,0.88283 l -7.89474,0.0331 -8.97129,15.58253 c -4.93421,8.57038 -8.97129,16.07242 -8.97129,16.67117 0,0.98199 11.80844,22.4988 16.7364,30.49632 1.90296,3.08831 2.82781,3.22967 21.1292,3.22967 H 798.3923 Z M 267.64972,296.16675 c 5.0295,-8.81881 9.14453,-16.81008 9.14453,-17.75837 0,-0.94828 -4.14473,-8.9072 -9.21051,-17.68649 l -9.21053,-15.96234 -19.46643,-0.0113 -19.46641,-0.0114 -9.6147,16.98121 -9.6147,16.9812 9.67669,16.75086 9.67668,16.75085 h 19.47042 19.47043 z m 120.21557,-0.47297 c 4.95237,-8.68421 9.00431,-16.43541 9.00431,-17.22488 0,-0.78947 -4.05299,-8.54067 -9.00665,-17.22488 l -9.00664,-15.78947 h -19.86595 -19.86595 l -9.42784,16.41099 -9.42784,16.411 4.03426,7.27321 c 2.21882,4.00027 6.57892,11.65124 9.68911,17.00216 l 5.65487,9.72893 19.60701,-0.39879 19.60701,-0.3988 z m 120.22463,-0.29473 c 7.17565,-12.43367 9.34629,-17.37836 8.34908,-19.01914 -0.74114,-1.21948 -5.0804,-8.83804 -9.64278,-16.93015 l -8.29525,-14.71292 -19.58542,0.0363 -19.58541,0.0363 -9.27288,16.29773 c -5.10007,8.96375 -9.27287,16.77653 -9.27287,17.36173 0,0.5852 4.1728,8.39798 9.27287,17.36173 l 9.27288,16.29772 19.53158,0.0363 19.53157,0.0363 z m 119.81393,0.4064 c 5.08395,-8.9687 9.24356,-16.77015 9.24356,-17.33655 0,-0.5664 -4.15961,-8.36785 -9.24356,-17.33656 l -9.24356,-16.30673 -19.54734,-0.0444 -19.54733,-0.0444 -9.51966,16.44435 c -5.2358,9.04438 -9.51964,16.82386 -9.51964,17.28771 0,0.46385 4.28384,8.24332 9.51964,17.28771 l 9.51966,16.44435 19.54733,-0.0444 19.54734,-0.0444 z m 119.83065,0.13469 c 5.19339,-8.94345 9.44253,-16.80551 9.44253,-17.47124 0,-0.66573 -4.25949,-8.54562 -9.46554,-17.51086 l -9.46556,-16.30045 -19.49758,0.39847 -19.49757,0.39849 -9.66022,16.50717 c -8.47119,14.4754 -9.44089,16.86053 -7.87834,19.37799 0.98004,1.57895 4.55159,7.71531 7.93681,13.63637 11.03612,19.30325 7.48744,17.22488 29.41042,17.22488 h 19.2325 z M 207.53032,261.73975 c 5.06885,-8.80629 9.41771,-16.51642 9.66414,-17.13363 0.24643,-0.6172 -3.87593,-8.59148 -9.1608,-17.72061 l -9.60885,-16.59843 -19.54733,0.008 -19.54734,0.008 -9.26053,16.33466 c -5.0933,8.98406 -9.29186,16.73382 -9.33015,17.22167 -0.0383,0.48786 4.12896,8.29302 9.26054,17.34482 l 9.33014,16.4578 19.49204,0.0444 19.49204,0.0444 z m 120.65924,-1.21343 9.58511,-16.50718 -4.91698,-8.61244 c -2.70433,-4.73684 -6.99268,-12.32656 -9.52966,-16.86603 l -4.6127,-8.25359 H 299.0708 279.42627 l -9.63008,16.77168 c -7.19785,12.53574 -9.28496,17.3393 -8.26364,19.01914 0.75154,1.2361 5.10932,8.88599 9.68396,16.99975 l 8.31755,14.75229 19.53519,-0.39822 19.5352,-0.39823 z m 119.76384,0.37266 9.67632,-16.85221 -3.98825,-7.19085 c -2.19355,-3.95497 -6.53295,-11.56887 -9.64314,-16.91979 l -5.65487,-9.72893 -19.62228,0.39879 -19.62228,0.39879 -9.5453,16.46075 c -8.41043,14.50368 -9.33181,16.80759 -7.74964,19.37799 0.9876,1.60448 5.45304,9.21509 9.92318,16.91246 l 8.12754,13.99522 h 19.2112 19.2112 z m 120.1292,-0.134 9.7094,-16.95449 -9.68296,-16.76171 -9.68295,-16.7617 h -19.43161 -19.43159 l -9.72156,16.72529 -9.72155,16.7253 9.74872,17.00528 9.74872,17.00529 19.378,-0.0144 19.37799,-0.0144 z m 118.21729,2.991 c 12.48639,-21.21343 12.37139,-18.70656 1.69582,-36.96172 l -9.23364,-15.78948 -19.53703,-0.39866 -19.53704,-0.39866 -7.97718,13.55441 c -12.8158,21.7759 -12.66734,18.31416 -1.60275,37.36828 l 9.65173,16.62105 h 19.1512 19.1512 z M 260.18815,239.35407 c 1.50046,-2.17106 6.07684,-9.85638 10.1697,-17.07851 l 7.44156,-13.13114 -9.63047,-16.65355 -9.63049,-16.65355 h -19.65224 -19.65224 l -9.49281,16.68667 -9.49281,16.68667 9.68444,17.03312 9.68443,17.03311 18.92141,0.0123 18.92138,0.0123 z m 127.54088,-12.55981 c 5.03785,-8.68421 8.99851,-16.76195 8.80147,-17.95053 -0.19704,-1.18858 -4.23385,-9.10394 -8.97069,-17.58969 l -8.61244,-15.42863 -20.05237,0.36481 -20.05238,0.3648 -9.00443,15.78948 c -4.95244,8.68421 -9.00902,16.29604 -9.01462,16.91519 -0.006,0.61914 4.25254,8.54963 9.46254,17.62331 l 9.47269,16.4976 19.40526,-0.39844 19.40527,-0.39843 z m 119.75322,0.3948 c 5.0953,-8.86182 9.46437,-16.5677 9.70907,-17.12418 0.24469,-0.55649 -3.84632,-8.48535 -9.09114,-17.61968 l -9.53602,-16.60788 -19.617,0.0113 -19.61702,0.0113 -9.21053,15.96235 c -5.06578,8.77929 -9.19168,16.68686 -9.16866,17.57238 0.0404,1.55483 15.15023,28.4641 18.03142,32.11243 1.00526,1.27289 6.91153,1.79426 20.32637,1.79426 h 18.90937 z m 120.66526,-1.1125 9.67286,-16.50718 -3.21241,-5.74163 c -1.76683,-3.15789 -6.07786,-10.74075 -9.58005,-16.85078 l -6.36762,-11.10916 -19.59379,-0.0152 -19.59378,-0.0152 -9.59019,16.51508 c -5.27459,9.08329 -9.37605,17.05205 -9.11435,17.70836 0.26172,0.6563 4.65748,8.42123 9.76836,17.25539 l 9.29254,16.06212 19.32278,-0.39727 19.3228,-0.39727 z m 119.65482,0.53015 c 11.06795,-19.11891 11.20696,-15.66504 -1.49929,-37.2548 l -7.95376,-13.51459 -19.6531,0.0509 -19.65312,0.0509 -9.50886,16.69862 -9.50886,16.69863 3.8652,6.57584 c 2.12585,3.61671 6.59481,11.25885 9.93102,16.98254 l 6.06584,10.4067 h 19.12517 19.12516 z M 202.18047,201.31579 c 2.62701,-4.14474 7.20042,-11.90364 10.16313,-17.242 l 5.38675,-9.70612 -9.57566,-16.49006 -9.57566,-16.49005 h -19.65088 -19.65089 l -9.62191,16.65603 -9.62191,16.65602 8.03994,13.84637 c 4.42197,7.6155 8.9401,15.29971 10.04029,17.07603 1.90819,3.08086 2.85944,3.22966 20.64538,3.22966 h 18.64503 z m 125.86162,-9.87518 9.71631,-16.69336 -9.49053,-16.71742 -9.49054,-16.71743 -19.97223,0.39643 -19.97224,0.39643 -9.28981,16.17463 -9.28982,16.17462 8.23906,14.68662 c 12.02946,21.44325 9.47601,19.85826 31.24015,19.39156 l 18.59333,-0.39872 z m 119.63758,0.71638 c 5.22355,-9.18207 9.49736,-17.17051 9.49736,-17.75208 0,-0.58157 -4.0811,-8.0869 -9.06911,-16.67852 l -9.06912,-15.62113 -19.99787,-0.37239 -19.99787,-0.3724 -8.97129,15.76965 c -4.93421,8.6733 -8.97129,16.54145 -8.97129,17.48478 0,0.94332 4.24915,9.0325 9.44253,17.97596 l 9.44255,16.26081 h 19.09838 19.09836 z m 120.39973,-0.76073 9.80216,-16.73771 -9.60059,-16.63549 -9.6006,-16.6355 h -19.70092 -19.70091 l -9.60073,16.58441 -9.60075,16.5844 6.76792,11.76488 c 3.72234,6.47068 8.30021,14.20573 10.17304,17.18901 l 3.40513,5.42413 18.92704,-0.40021 18.92704,-0.40021 z m 119.33736,1.14179 c 5.21025,-8.97249 9.47319,-17.07415 9.47319,-18.0037 0,-0.92954 -4.03708,-8.761 -8.97129,-17.40324 l -8.97129,-15.71316 -20.00293,0.34366 -20.0029,0.34365 -9.06408,15.51821 c -4.98523,8.53501 -9.06406,16.1178 -9.06406,16.85065 0,0.73285 4.29093,8.7676 9.5354,17.855 l 9.53542,16.52255 h 19.02967 19.02966 z m -419.07299,-36.10366 9.49252,-16.53211 -9.75872,-16.84109 -9.75869,-16.84109 h -19.32366 -19.32366 l -9.75871,16.84109 -9.75871,16.84109 9.49252,16.53211 9.49253,16.53212 h 19.85603 19.85602 z m 119.57489,0.75971 c 4.93421,-8.65689 8.97129,-16.42287 8.97129,-17.25774 0,-0.83486 -4.25249,-8.92404 -9.44997,-17.97595 L 377.99,105.50239 h -19.09094 -19.09093 l -9.49736,16.69468 c -5.22356,9.18208 -9.49737,17.2051 -9.49737,17.82893 0,1.20623 15.20124,28.11537 17.59481,31.14625 1.01074,1.27984 7.02518,1.78958 20.97807,1.77795 l 19.56109,-0.0163 z m 120.50175,-1.07297 9.26285,-16.12768 -9.79856,-17.26391 -9.79858,-17.2639 -19.21059,0.37723 -19.21059,0.37723 -9.80638,16.84782 -9.80639,16.84783 9.5781,16.56297 9.57811,16.56298 19.97459,-0.39645 19.9746,-0.39645 z m 119.8982,0.32234 9.60399,-16.52303 -9.84958,-16.85017 -9.84958,-16.85017 -19.15957,-0.37358 -19.15956,-0.37357 -9.79553,17.13491 c -8.7892,15.37457 -9.61612,17.47746 -8.04931,20.46927 0.96043,1.83389 5.24462,9.30923 9.52042,16.61187 l 7.77418,13.27751 h 19.68027 19.68028 z m 119.79436,0.28713 c 4.98523,-8.53501 9.06406,-16.07281 9.06406,-16.75067 0,-0.67786 -4.34781,-8.71261 -9.66182,-17.855 l -9.66184,-16.62254 h -18.90324 -18.90324 l -9.47322,16.31362 c -5.21025,8.97249 -9.47319,17.12875 -9.47319,18.12502 0,0.99627 4.03708,8.83692 8.97129,17.42368 l 8.97129,15.61227 20.00293,-0.36409 20.0029,-0.36409 z"
   id="path149" /><path
   style="fill:#000080;stroke-width:1.43541"
   d="m 759.00644,413.75598 c -3.024,-3.89531 -17.61888,-29.71852 -17.61888,-31.17368 0,-0.85171 4.03708,-8.64491 8.97129,-17.31821 l 8.97129,-15.76965 19.90635,0.3724 19.90634,0.37239 9.30591,16.06836 9.3059,16.06836 -8.95469,15.70134 -8.95469,15.70133 -6.46269,0.88581 c -11.64312,1.59587 -32.8674,1.03498 -34.37613,-0.90845 z"
   id="path150" /><path
   style="fill:#ffff00;stroke-width:1.43541"
   d="m 510.11044,538.05827 -9.50678,-16.64228 9.57483,-16.68885 9.57483,-16.68886 h 19.2419 19.24189 l 9.55713,16.658 9.55712,16.658 -9.48908,16.66431 -9.48907,16.66431 -19.37799,0.009 -19.378,0.009 z"
   id="path151" /><path
   style="fill:#ffff00;stroke-width:1.43541"
   d="m 149.7137,815.16031 -9.45673,-16.65788 6.80636,-11.69141 c 3.7435,-6.43027 8.271,-14.13188 10.06112,-17.11469 l 3.25477,-5.42328 18.85345,0.39936 18.85345,0.39936 8.9713,15.72815 c 4.93421,8.65048 8.97129,16.82191 8.97129,18.15873 0,1.33683 -3.92845,9.2771 -8.72989,17.64506 l -8.72988,15.21447 h -19.69926 -19.69925 z"
   id="path152" /><path
   style="fill:#ffff00;stroke-width:1.43541"
   d="m 214.25478,787.70085 c -2.94935,-5.34073 -7.24646,-12.94008 -9.54912,-16.88745 l -4.18667,-7.17704 9.65535,-16.50717 9.65534,-16.50718 h 19.20371 19.20372 l 9.54109,16.63005 9.54109,16.63005 -9.50096,16.38431 -9.50097,16.3843 -19.35007,0.38027 -19.35007,0.38028 z"
   id="path153" /><path
   style="fill:#ffff00;stroke-width:1.43541"
   d="m 270.64377,746.59829 c -5.0933,-9.00094 -9.26054,-16.8362 -9.26054,-17.41169 0,-0.57548 4.16724,-8.39693 9.26054,-17.381 l 9.26054,-16.33466 18.95582,-0.008 18.95582,-0.008 5.63155,9.68899 c 3.09735,5.32895 7.44695,12.96194 9.66579,16.96221 l 4.03425,7.27322 -9.42548,16.41099 -9.42548,16.411 -19.19614,0.38134 -19.19613,0.38133 z"
   id="path154" /><path
   style="fill:#ffff00;stroke-width:1.43541"
   d="m 331.2201,712.89728 c -4.93421,-8.5519 -8.9713,-16.76272 -8.9713,-18.24626 0,-1.48354 4.03632,-9.74917 8.96959,-18.36807 l 8.96959,-15.67073 14.93792,0.91399 c 8.21585,0.50269 16.94969,0.91398 19.40853,0.91398 4.18208,0 5.00146,0.95411 12.69537,14.78282 4.52361,8.13055 8.22475,16.02351 8.22475,17.53991 0,1.5164 -3.98576,9.72059 -8.85725,18.23153 l -8.85724,15.47445 -18.77434,-0.0113 -18.77433,-0.0113 z"
   id="path155" /><path
   style="fill:#ffff00;stroke-width:1.43541"
   d="m 390.60463,677.1923 -9.86507,-16.90522 3.94237,-7.17703 c 2.16831,-3.94737 6.47657,-11.53708 9.57392,-16.86603 l 5.63155,-9.689 h 19.18351 19.18351 l 8.86246,15.76758 c 7.07326,12.58434 8.67897,16.56892 7.95356,19.73685 -0.4999,2.18309 -4.59677,10.10562 -9.10415,17.60562 l -8.19523,13.63637 -18.65068,0.39804 -18.65068,0.39805 z"
   id="path156" /><path
   style="fill:#ffff00;stroke-width:1.43541"
   d="m 456.71872,652.7512 c -7.51025,-12.01318 -15.33116,-26.07368 -15.33116,-27.56248 0,-2.67869 17.57168,-31.87123 19.66833,-32.67579 1.08468,-0.41623 10.14423,-0.19378 20.13234,0.49433 l 18.16021,1.25111 9.00196,15.42257 9.00196,15.42257 -9.55049,16.51523 -9.5505,16.51523 h -19.08375 -19.08376 z"
   id="path157" /><path
   style="fill:#ffff00;stroke-width:1.43541"
   d="m 510.09509,607.10227 -9.52213,-16.57169 9.49569,-16.43754 9.49569,-16.43754 19.40443,0.0113 19.40444,0.0114 8.97129,15.54891 c 4.93421,8.5519 8.97129,16.38008 8.97129,17.39596 0,1.01588 -4.03708,8.85919 -8.97129,17.42958 l -8.97129,15.58253 -19.37799,0.0194 -19.378,0.0194 z"
   id="path158" /><path
   style="fill:#ffff00;stroke-width:1.43541"
   d="m 570.88896,573.65818 c -4.90998,-8.60926 -8.92724,-16.63651 -8.92724,-17.83834 0,-1.20184 3.92845,-9.03167 8.72989,-17.39963 l 8.72988,-15.21447 19.6194,0.0245 19.6194,0.0245 8.97129,15.58253 c 4.93421,8.57039 8.96671,16.14908 8.96111,16.84152 -0.006,0.69244 -4.06211,8.36425 -9.01448,17.04846 l -9.0043,15.78948 -19.37886,0.39731 -19.37886,0.3973 z"
   id="path159" /><path
   style="fill:#ffff00;stroke-width:1.43541"
   d="m 632.80692,542.36254 c -10.47419,-18.01021 -10.90524,-19.01374 -9.89535,-23.03748 0.49879,-1.98731 4.59011,-10.0417 9.09182,-17.89863 l 8.18495,-14.28535 17.94411,0.91466 c 9.86926,0.50306 18.69067,1.14576 19.60315,1.42821 2.44093,0.7556 17.71895,28.59279 17.71895,32.28468 0,2.24327 -12.41267,25.83092 -16.35074,31.07111 -0.086,0.11449 -8.87654,0.66089 -19.53443,1.21422 l -19.37799,1.00605 z"
   id="path160" /><path
   style="fill:#ffff00;stroke-width:1.43541"
   d="m 701.69686,518.90726 c -2.59101,-1.04527 -17.31823,-23.67895 -20.06517,-30.83736 -0.58787,-1.53199 11.97509,-25.7295 17.26503,-33.25414 0.0805,-0.11449 8.86644,-0.65845 19.52433,-1.2088 l 19.37799,-1.00064 9.73296,16.83042 9.73296,16.83041 -9.64453,17.03389 -9.64453,17.03389 -16.5956,-0.091 c -9.12759,-0.05 -17.98513,-0.65155 -19.68344,-1.33668 z"
   id="path161" /><path
   style="fill:#000000;stroke-width:1.43541"
   d="m 778.70813,484.7536 -19.37799,-0.41387 -8.97129,-15.55202 c -4.93421,-8.55362 -8.92016,-16.44154 -8.85767,-17.52872 0.0625,-1.08718 4.11036,-8.75899 8.99527,-17.04846 l 8.88166,-15.07177 17.2009,-0.36063 c 11.64346,-0.24411 18.29786,0.21966 20.59613,1.43541 1.86738,0.98782 7.26106,8.42287 11.98596,16.52234 l 8.59071,14.7263 -8.2692,14.69953 c -4.54806,8.08475 -8.97284,15.66843 -9.83284,16.85264 -1.28388,1.76788 -5.03074,2.07907 -20.94164,1.73925 z"
   id="path162" /><path
   style="fill:#000000;stroke-width:1.43541"
   d="m 271.34896,817.96586 c -4.46049,-7.61877 -8.4314,-15.53145 -8.82425,-17.58373 -0.52961,-2.7668 1.62448,-7.81317 8.33267,-19.52089 7.40002,-12.91515 9.63485,-15.77081 12.27659,-15.68694 1.77632,0.0564 10.49641,0.22521 19.37799,0.37516 l 16.14833,0.27263 8.97129,15.73979 c 4.93421,8.65689 8.97129,16.48284 8.97129,17.39101 0,0.90817 -4.03708,8.66335 -8.97129,17.23374 l -8.97129,15.58253 -19.60067,0.0245 -19.60067,0.0245 z"
   id="path163" /><path
   style="fill:#000000;stroke-width:1.43541"
   d="m 331.10605,781.89398 c -4.87149,-8.51095 -8.85725,-16.66375 -8.85725,-18.11733 0,-1.45359 4.00739,-9.66951 8.90531,-18.25761 l 8.9053,-15.61473 h 18.84032 18.84033 l 8.85724,15.47444 c 4.87149,8.51095 8.85725,16.71514 8.85725,18.23154 0,1.5164 -3.64984,9.31715 -8.11074,17.33499 l -8.11074,14.5779 -15.07906,0.92262 c -26.34819,1.61213 -22.93611,3.11455 -33.04796,-14.55182 z"
   id="path164" /><path
   style="fill:#000000;stroke-width:1.43541"
   d="m 401.37264,761.10324 c -1.91479,-0.99503 -7.12763,-8.22244 -11.87933,-16.47024 l -8.46727,-14.69715 3.08831,-6.11625 c 2.29936,-4.55376 13.60055,-24.75362 14.78123,-26.42011 0.0811,-0.11449 8.86758,-0.6648 19.52547,-1.22291 l 19.37799,-1.01475 9.21053,16.18057 c 5.06579,8.89931 9.21053,16.9292 9.21053,17.8442 0,0.915 -4.11505,8.87904 -9.14454,17.69785 l -9.14454,16.03421 -16.57316,-0.0212 c -10.31426,-0.0132 -17.86174,-0.69078 -19.98522,-1.79426 z"
   id="path165" /><path
   style="fill:#000000;stroke-width:1.43541"
   d="m 454.54665,718.7799 c -3.09531,-5.32894 -7.36232,-13.13752 -9.48225,-17.35238 l -3.85442,-7.66338 9.09391,-16.02083 9.09391,-16.02082 19.34416,-0.38628 19.34416,-0.38628 9.06106,15.89377 c 4.98358,8.74157 8.85917,16.99313 8.61244,18.33681 -0.24674,1.34367 -4.32421,9.3724 -9.06106,17.84163 l -8.61244,15.39859 -18.95582,0.0241 -18.95582,0.0241 z"
   id="path166" /><path
   style="fill:#000000;stroke-width:1.43541"
   d="m 518.46744,690.92501 c -1.1612,-1.85086 -5.65481,-9.57081 -9.98578,-17.15545 l -7.87451,-13.79025 9.50504,-16.69794 9.50503,-16.69794 h 19.378 19.37799 l 9.50393,16.696 9.50393,16.69601 -9.47677,16.30414 -9.47676,16.30415 -15.81664,0.0196 c -8.69915,0.0108 -17.21514,0.39474 -18.92441,0.85324 -2.25719,0.60548 -3.68561,-0.0874 -5.21905,-2.53156 z"
   id="path167" /><path
   style="fill:#000000;stroke-width:1.43541"
   d="m 578.30966,655.62201 c -0.86213,-1.38158 -5.19797,-8.80131 -9.6352,-16.4883 l -8.0677,-13.97633 8.9528,-15.4495 8.9528,-15.44951 18.22502,-1.25111 c 10.02376,-0.68811 19.13584,-0.9016 20.24906,-0.47441 1.9757,0.75814 19.61643,30.17887 19.61643,32.71574 0,0.70344 -4.03708,8.36693 -8.97129,17.02998 l -8.97129,15.751 -19.39156,0.0522 c -16.94892,0.0456 -19.58901,-0.26422 -20.95907,-2.45976 z"
   id="path168" /><path
   style="fill:#000000;stroke-width:1.43541"
   d="m 583.21477,657.13557 c -3.16701,-0.50135 -5.43941,-3.30299 -12.55981,-15.48499 -4.78128,-8.18009 -8.69324,-15.63295 -8.69324,-16.56191 0,-1.30191 14.50881,-27.39454 16.63753,-29.92091 0.96785,-1.14866 35.89438,-2.57147 37.90793,-1.54427 3.3432,1.70551 18.66956,27.81383 18.58423,31.65808 -0.0418,1.88461 -3.77341,9.88589 -8.29239,17.78063 l -8.21632,14.35407 -15.75068,0.1657 c -8.66287,0.0911 -17.49064,-0.10975 -19.61725,-0.4464 z"
   id="path169" /><path
   style="fill:#000000;stroke-width:1.43541"
   d=""
   id="path170" /><path
   style="fill:#000000;stroke-width:1.43541"
   d="m 695.00224,580.98086 c -2.7315,-4.53947 -6.9744,-12.05407 -9.42866,-16.69911 l -4.46229,-8.44552 5.99136,-10.93247 c 3.29525,-6.01286 7.51092,-13.37282 9.36814,-16.35547 l 3.37677,-5.423 19.49424,0.39908 19.49424,0.39907 7.82313,13.53829 c 4.30272,7.44605 8.13446,15.19725 8.51497,17.22488 0.50455,2.68859 -1.69214,7.86385 -8.11448,19.11722 l -8.80632,15.43062 h -19.14236 -19.14236 z"
   id="path171" /><path
   style="fill:#000000;stroke-width:1.43541"
   d="m 759.00134,552.99043 c -2.4151,-3.09959 -17.61378,-30.62528 -17.61378,-31.89956 0,-0.6679 4.03708,-8.21137 8.97129,-16.76327 l 8.97129,-15.54892 17.46634,-0.0113 c 9.60648,-0.006 18.34522,-0.34861 19.41943,-0.76082 1.30929,-0.50242 5.01497,4.54295 11.2418,15.30599 5.10878,8.83051 9.48891,16.55069 9.7336,17.15595 0.2447,0.60527 -3.84631,8.57403 -9.09112,17.70836 l -9.53603,16.60788 h -19.0824 c -13.56337,0 -19.48674,-0.51894 -20.48042,-1.79426 z"
   id="path172" /><path
   style="fill:#000000;stroke-width:1.43541"
   d="m 643.03791,622.69267 c -3.71844,-0.49446 -5.29786,-2.26313 -11.17469,-12.51371 -10.3096,-17.98237 -10.59738,-19.12059 -6.7566,-26.72332 1.7844,-3.53218 5.78597,-10.80017 8.89236,-16.15108 l 5.64799,-9.72894 19.62332,0.39879 19.62332,0.3988 9.0897,16.14832 9.08969,16.14833 -9.08888,16.14832 -9.08887,16.14833 -15.76342,0.15101 c -8.66987,0.083 -17.71214,-0.10813 -20.09392,-0.42485 z"
   id="path173" /></svg>
